<?xml version="1.0" encoding="utf-8"?>
<!-- Generator: Adobe Illustrator 23.0.2, SVG Export Plug-In . SVG Version: 6.00 Build 0)  -->
<svg version="1.1" id="Layer_1" xmlns="http://www.w3.org/2000/svg" xmlns:xlink="http://www.w3.org/1999/xlink" x="0px" y="0px"
	 viewBox="0 0 587 164" enable-background="new 0 0 587 164" xml:space="preserve">
<g>
	<g>
		<path fill="#5D95C4" d="M85.5,50.9l-17.4,9.6c-3.3-3.4-6.5-5.8-9.7-7.1c-3.2-1.3-6.9-2-11.2-2c-7.8,0-14.2,2.3-19,7
			C23.3,63,20.9,69,20.9,76.3c0,7.1,2.3,12.9,7,17.4c4.7,4.5,10.8,6.7,18.3,6.7c9.4,0,16.6-3.2,21.9-9.6l16.5,11.3
			c-8.9,11.6-21.6,17.4-37.9,17.4c-14.7,0-26.1-4.3-34.4-13C3.9,97.8-0.2,87.6-0.2,76c0-8.1,2-15.5,6.1-22.3c4-6.8,9.7-12.1,16.9-16
			c7.2-3.9,15.3-5.8,24.3-5.8c8.3,0,15.7,1.6,22.3,4.9C75.9,40.1,81.3,44.8,85.5,50.9z"/>
		<path fill="#5D95C4" d="M112.5-0.3c3.7,0,6.8,1.3,9.4,4c2.6,2.7,3.9,5.9,3.9,9.7c0,3.7-1.3,6.9-3.9,9.5c-2.6,2.6-5.7,3.9-9.3,3.9
			c-3.7,0-6.9-1.3-9.5-4c-2.6-2.7-3.9-5.9-3.9-9.8c0-3.7,1.3-6.8,3.9-9.4C105.7,1,108.8-0.3,112.5-0.3z M102,34h20.9v83.4H102V34z"
			/>
		<path fill="#5D95C4" d="M138.4,34h63.8l-37.5,65.7h35.3v17.7h-67.4l37.6-65.7h-31.9V34z"/>
		<path fill="#5D95C4" d="M234.9,34v9.2c3.8-3.8,7.9-6.6,12.3-8.5c4.4-1.9,9.1-2.8,14.1-2.8c10.9,0,20.1,4.1,27.7,12.3
			c7.6,8.2,11.4,18.8,11.4,31.6c0,12.4-3.9,22.8-11.8,31.2c-7.9,8.4-17.2,12.5-28,12.5c-4.8,0-9.3-0.9-13.4-2.6
			c-4.1-1.7-8.3-4.5-12.3-8.4v55.2h-20.8V34H234.9z M256.9,51.2c-6.6,0-12.1,2.2-16.4,6.7c-4.3,4.5-6.5,10.4-6.5,17.6
			c0,7.4,2.2,13.4,6.5,18c4.3,4.6,9.8,6.9,16.4,6.9c6.4,0,11.8-2.3,16.1-7c4.4-4.6,6.6-10.6,6.6-17.8c0-7.2-2.1-13-6.4-17.6
			C268.8,53.5,263.4,51.2,256.9,51.2z"/>
		<path fill="#5D95C4" d="M315.4,1.8h20.9v115.6h-20.9V1.8z"/>
		<path fill="#5D95C4" d="M416.9,34h20.9v83.4h-20.9v-8.8c-4.1,3.9-8.2,6.7-12.3,8.4c-4.1,1.7-8.6,2.6-13.4,2.6
			c-10.8,0-20.1-4.2-27.9-12.5c-7.9-8.4-11.8-18.7-11.8-31.2c0-12.9,3.8-23.4,11.4-31.6c7.6-8.2,16.8-12.3,27.7-12.3
			c5,0,9.7,0.9,14.1,2.8c4.4,1.9,8.4,4.7,12.2,8.5V34z M394.9,51.2c-6.5,0-11.8,2.3-16.1,6.9c-4.3,4.6-6.4,10.4-6.4,17.6
			c0,7.2,2.2,13.1,6.5,17.8c4.4,4.6,9.7,7,16.1,7c6.6,0,12-2.3,16.3-6.9c4.3-4.6,6.5-10.6,6.5-18c0-7.3-2.2-13.1-6.5-17.6
			C407,53.4,401.5,51.2,394.9,51.2z"/>
		<path fill="#5D95C4" d="M458.8,34h20.9v9.6c3.6-3.9,7.6-6.9,11.9-8.8c4.4-1.9,9.1-2.9,14.3-2.9c5.2,0,9.9,1.3,14.1,3.8
			c4.2,2.6,7.6,6.3,10.1,11.2c3.3-4.9,7.4-8.6,12.2-11.2c4.8-2.6,10.1-3.8,15.8-3.8c5.9,0,11.1,1.4,15.6,4.1
			c4.5,2.8,7.7,6.4,9.7,10.8c2,4.4,3,11.7,3,21.7v48.9h-21.1V75.1c0-9.5-1.2-15.8-3.5-19.2c-2.4-3.3-5.9-5-10.6-5
			c-3.6,0-6.8,1-9.6,3.1c-2.8,2-4.9,4.9-6.3,8.5c-1.4,3.6-2.1,9.4-2.1,17.4v37.6h-21.1V77c0-7.5-0.6-12.9-1.7-16.2
			c-1.1-3.3-2.8-5.8-5-7.5c-2.2-1.6-4.9-2.5-8-2.5c-3.5,0-6.6,1-9.5,3.1c-2.8,2.1-5,5-6.4,8.7c-1.4,3.7-2.1,9.6-2.1,17.6v37.1h-20.9
			V34z"/>
	</g>
	<g>
		<path fill="#4D4D4F" d="M250.9,129.7h6c-2.1,2.3-3.6,4.8-4.6,7.6c-1,2.7-1.5,5.8-1.5,9.3c0,3.8,0.6,7.1,1.7,10
			c0.9,2.2,2.4,4.6,4.4,7.2h-6c-1.9-2.9-3.1-5.7-3.9-8.2c-0.7-2.6-1.1-5.6-1.1-9c0-3.4,0.4-6.4,1.2-8.9
			C247.8,135,249.1,132.4,250.9,129.7z"/>
		<path fill="#4D4D4F" d="M264.9,137.5v2.1c0.9-0.9,1.8-1.5,2.8-1.9c1-0.4,2.1-0.6,3.2-0.6c2.5,0,4.6,0.9,6.3,2.8
			c1.7,1.9,2.6,4.3,2.6,7.2c0,2.8-0.9,5.2-2.7,7.1c-1.8,1.9-3.9,2.8-6.3,2.8c-1.1,0-2.1-0.2-3-0.6c-0.9-0.4-1.9-1-2.8-1.9v8.9h-4.7
			v-25.8H264.9z M269.8,141.4c-1.5,0-2.7,0.5-3.7,1.5c-1,1-1.5,2.3-1.5,4c0,1.7,0.5,3,1.5,4.1c1,1,2.2,1.6,3.7,1.6
			c1.4,0,2.7-0.5,3.7-1.6c1-1.1,1.5-2.4,1.5-4c0-1.6-0.5-2.9-1.5-4C272.5,141.9,271.3,141.4,269.8,141.4z"/>
		<path fill="#4D4D4F" d="M283.1,130.2h4.7v26.2h-4.7V130.2z"/>
		<path fill="#4D4D4F" d="M306.1,137.5h4.7v18.9h-4.7v-2c-0.9,0.9-1.9,1.5-2.8,1.9c-0.9,0.4-1.9,0.6-3,0.6c-2.4,0-4.5-0.9-6.3-2.8
			c-1.8-1.9-2.7-4.2-2.7-7.1c0-2.9,0.9-5.3,2.6-7.2c1.7-1.9,3.8-2.8,6.3-2.8c1.1,0,2.2,0.2,3.2,0.6c1,0.4,1.9,1.1,2.8,1.9V137.5z
			 M301.1,141.4c-1.5,0-2.7,0.5-3.6,1.6c-1,1-1.5,2.4-1.5,4c0,1.6,0.5,3,1.5,4c1,1.1,2.2,1.6,3.6,1.6c1.5,0,2.7-0.5,3.7-1.6
			c1-1,1.5-2.4,1.5-4.1c0-1.6-0.5-3-1.5-4C303.8,141.9,302.6,141.4,301.1,141.4z"/>
		<path fill="#4D4D4F" d="M334.1,141.3l-3.9,2.2c-0.7-0.8-1.5-1.3-2.2-1.6c-0.7-0.3-1.6-0.5-2.5-0.5c-1.8,0-3.2,0.5-4.3,1.6
			c-1.1,1.1-1.6,2.4-1.6,4.1c0,1.6,0.5,2.9,1.6,3.9c1.1,1,2.4,1.5,4.2,1.5c2.1,0,3.8-0.7,5-2.2l3.7,2.6c-2,2.6-4.9,3.9-8.6,3.9
			c-3.3,0-5.9-1-7.8-2.9c-1.9-2-2.8-4.3-2.8-6.9c0-1.8,0.5-3.5,1.4-5c0.9-1.5,2.2-2.7,3.8-3.6c1.6-0.9,3.5-1.3,5.5-1.3
			c1.9,0,3.6,0.4,5,1.1C331.9,138.9,333.1,139.9,334.1,141.3z"/>
		<path fill="#4D4D4F" d="M357.2,148.3H342c0.2,1.3,0.8,2.4,1.8,3.2c1,0.8,2.2,1.2,3.7,1.2c1.8,0,3.3-0.6,4.6-1.9l4,1.9
			c-1,1.4-2.2,2.5-3.6,3.1c-1.4,0.7-3,1-4.9,1c-3,0-5.4-0.9-7.2-2.8c-1.9-1.9-2.8-4.2-2.8-7c0-2.9,0.9-5.3,2.8-7.2
			c1.9-1.9,4.2-2.9,7-2.9c3,0,5.4,1,7.3,2.9c1.9,1.9,2.8,4.4,2.8,7.5L357.2,148.3z M352.5,144.6c-0.3-1.1-0.9-1.9-1.9-2.6
			s-2-1-3.2-1c-1.3,0-2.5,0.4-3.5,1.1c-0.6,0.5-1.2,1.3-1.7,2.4H352.5z"/>
		<path fill="#4D4D4F" d="M365.8,130.2v9.4c0.9-0.9,1.8-1.5,2.8-1.9c1-0.4,2.1-0.6,3.2-0.6c2.5,0,4.6,0.9,6.3,2.8
			c1.7,1.9,2.6,4.3,2.6,7.2c0,2.8-0.9,5.2-2.7,7.1c-1.8,1.9-3.9,2.8-6.3,2.8c-1.1,0-2.1-0.2-3-0.6c-0.9-0.4-1.9-1-2.8-1.9v2h-4.7
			v-26.2H365.8z M370.7,141.4c-1.5,0-2.7,0.5-3.7,1.5c-1,1-1.5,2.3-1.5,4c0,1.7,0.5,3,1.5,4.1c1,1,2.2,1.6,3.7,1.6
			c1.4,0,2.7-0.5,3.7-1.6c1-1.1,1.5-2.4,1.5-4c0-1.6-0.5-2.9-1.5-4C373.4,141.9,372.2,141.4,370.7,141.4z"/>
		<path fill="#4D4D4F" d="M403.4,148.3h-15.2c0.2,1.3,0.8,2.4,1.8,3.2c1,0.8,2.2,1.2,3.7,1.2c1.8,0,3.3-0.6,4.6-1.9l4,1.9
			c-1,1.4-2.2,2.5-3.6,3.1c-1.4,0.7-3,1-4.9,1c-3,0-5.4-0.9-7.2-2.8c-1.9-1.9-2.8-4.2-2.8-7c0-2.9,0.9-5.3,2.8-7.2
			c1.9-1.9,4.2-2.9,7-2.9c3,0,5.4,1,7.3,2.9c1.9,1.9,2.8,4.4,2.8,7.5L403.4,148.3z M398.7,144.6c-0.3-1.1-0.9-1.9-1.9-2.6
			s-2-1-3.2-1c-1.3,0-2.5,0.4-3.5,1.1c-0.6,0.5-1.2,1.3-1.7,2.4H398.7z"/>
		<path fill="#4D4D4F" d="M407.8,130.6h4.7v7h2.8v4.1h-2.8v14.8h-4.7v-14.8h-2.4v-4.1h2.4V130.6z"/>
		<path fill="#4D4D4F" d="M416.8,137.5h4.1v2.4c0.4-0.9,1-1.6,1.8-2.1c0.7-0.5,1.5-0.7,2.4-0.7c0.6,0,1.3,0.2,1.9,0.5l-1.5,4.1
			c-0.6-0.3-1-0.4-1.4-0.4c-0.7,0-1.3,0.5-1.8,1.4c-0.5,0.9-0.8,2.7-0.8,5.3l0,0.9v7.6h-4.7V137.5z"/>
		<path fill="#4D4D4F" d="M438.1,137c1.8,0,3.5,0.4,5,1.3c1.6,0.9,2.8,2.1,3.7,3.6c0.9,1.5,1.3,3.2,1.3,4.9c0,1.8-0.4,3.4-1.3,5
			c-0.9,1.6-2.1,2.8-3.6,3.6c-1.5,0.9-3.2,1.3-5,1.3c-2.7,0-5-1-6.9-2.9c-1.9-1.9-2.9-4.3-2.9-7c0-2.9,1.1-5.4,3.2-7.4
			C433.5,137.9,435.7,137,438.1,137z M438.2,141.5c-1.5,0-2.7,0.5-3.7,1.5c-1,1-1.5,2.3-1.5,3.9c0,1.6,0.5,3,1.5,4
			c1,1,2.2,1.5,3.7,1.5c1.5,0,2.7-0.5,3.7-1.5c1-1,1.5-2.4,1.5-4c0-1.6-0.5-2.9-1.5-3.9C441,142,439.7,141.5,438.2,141.5z"/>
		<path fill="#4D4D4F" d="M452,137.5h4.7v1.9c1.1-0.9,2-1.5,2.9-1.9c0.9-0.4,1.8-0.5,2.7-0.5c1.9,0,3.5,0.7,4.8,2
			c1.1,1.1,1.6,2.8,1.6,4.9v12.5h-4.7v-8.3c0-2.3-0.1-3.7-0.3-4.5c-0.2-0.7-0.6-1.3-1.1-1.7c-0.5-0.4-1.1-0.6-1.9-0.6
			c-1,0-1.8,0.3-2.5,1c-0.7,0.6-1.2,1.5-1.4,2.7c-0.1,0.6-0.2,1.9-0.2,3.8v7.6H452V137.5z"/>
		<path fill="#4D4D4F" d="M497.2,137.5h4.7v18.9h-4.7v-2c-0.9,0.9-1.9,1.5-2.8,1.9c-0.9,0.4-1.9,0.6-3,0.6c-2.4,0-4.5-0.9-6.3-2.8
			c-1.8-1.9-2.7-4.2-2.7-7.1c0-2.9,0.9-5.3,2.6-7.2c1.7-1.9,3.8-2.8,6.3-2.8c1.1,0,2.2,0.2,3.2,0.6c1,0.4,1.9,1.1,2.8,1.9V137.5z
			 M492.2,141.4c-1.5,0-2.7,0.5-3.6,1.6c-1,1-1.5,2.4-1.5,4c0,1.6,0.5,3,1.5,4c1,1.1,2.2,1.6,3.6,1.6c1.5,0,2.7-0.5,3.7-1.6
			c1-1,1.5-2.4,1.5-4.1c0-1.6-0.5-3-1.5-4C495,141.9,493.7,141.4,492.2,141.4z"/>
		<path fill="#4D4D4F" d="M505,137.5h5.5l3.7,5.1l3.7-5.1h5.4l-6.4,8.9l7.2,10h-5.5l-4.5-6.2l-4.5,6.2h-5.4l7.2-9.9L505,137.5z"/>
		<path fill="#4D4D4F" d="M545.5,148.3h-15.2c0.2,1.3,0.8,2.4,1.8,3.2c1,0.8,2.2,1.2,3.7,1.2c1.8,0,3.3-0.6,4.6-1.9l4,1.9
			c-1,1.4-2.2,2.5-3.6,3.1c-1.4,0.7-3,1-4.9,1c-3,0-5.4-0.9-7.2-2.8c-1.9-1.9-2.8-4.2-2.8-7c0-2.9,0.9-5.3,2.8-7.2
			c1.9-1.9,4.2-2.9,7-2.9c3,0,5.4,1,7.3,2.9c1.9,1.9,2.8,4.4,2.8,7.5L545.5,148.3z M540.8,144.6c-0.3-1.1-0.9-1.9-1.9-2.6
			c-0.9-0.7-2-1-3.2-1c-1.3,0-2.5,0.4-3.5,1.1c-0.6,0.5-1.2,1.3-1.7,2.4H540.8z"/>
		<path fill="#4D4D4F" d="M549.9,130.6h4.7v7h2.8v4.1h-2.8v14.8h-4.7v-14.8h-2.4v-4.1h2.4V130.6z"/>
		<path fill="#4D4D4F" d="M561.9,129.7c0.8,0,1.5,0.3,2.1,0.9c0.6,0.6,0.9,1.3,0.9,2.2c0,0.8-0.3,1.6-0.9,2.2
			c-0.6,0.6-1.3,0.9-2.1,0.9c-0.8,0-1.6-0.3-2.2-0.9c-0.6-0.6-0.9-1.3-0.9-2.2c0-0.8,0.3-1.5,0.9-2.1
			C560.3,130,561,129.7,561.9,129.7z M559.5,137.5h4.7v18.9h-4.7V137.5z"/>
		<path fill="#4D4D4F" d="M568,130.2h4.7v26.2H568V130.2z"/>
		<path fill="#4D4D4F" d="M581.6,163.8h-6c2.1-2.3,3.6-4.8,4.6-7.6c1-2.7,1.5-5.8,1.5-9.3c0-3.8-0.6-7.1-1.7-10
			c-0.9-2.2-2.4-4.6-4.4-7.2h6c1.8,2.9,3.1,5.7,3.9,8.2c0.7,2.6,1.1,5.6,1.1,9c0,3.4-0.4,6.4-1.2,8.9
			C584.6,158.5,583.3,161.1,581.6,163.8z"/>
	</g>
</g>
</svg>
