<svg xmlns="http://www.w3.org/2000/svg" xmlns:xlink="http://www.w3.org/1999/xlink" viewBox="0 0 195 178.73">
  <defs>
    <clipPath id="a388fa5a-0188-4eed-b558-25207f9f656e">
      <rect x="4.5" y="12.54" width="187" height="118" rx="7.2" fill="none" stroke="#000" stroke-miterlimit="10" stroke-width="0.25"/>
    </clipPath>
  </defs>
  <title>CizplamCardFront</title>
  <g id="e05bf54f-c9a8-474c-80da-5955faee93ca" data-name="Layer 2">
    <g id="ad051627-70b7-4ba5-b037-22588471e7f4" data-name="Layer 1">
      <g>
        <g>
          <g clip-path="url(#a388fa5a-0188-4eed-b558-25207f9f656e)">
            <g>
              <g>
                <polygon points="157.88 0 161.23 9.83 163.7 0 157.88 0" fill="#acc6db"/>
                <polygon points="163.7 0 161.23 9.83 161.24 9.85 164.43 6.01 169.32 0 163.7 0" fill="#e0e8f0"/>
                <polygon points="169.32 0 164.43 6.01 191.48 18.6 183.44 0 169.32 0" fill="#e5edf4"/>
                <polyline points="164.43 6.01 161.26 9.9 161.28 9.98 161.22 9.95 161.14 10.05 161.15 10.05 147.15 27.22 179.8 20.68 179.83 20.86 179.84 20.86 191.48 18.6" fill="#cfdeea"/>
                <path d="M77.33,178.73h0l1-5.57Z" fill="#cfdeea"/>
                <path d="M0,130.29l22.11-6.47L0,130.24Z" fill="#acc6db"/>
                <path d="M145.69,114.45l-17.13,17.69C129,132,145.69,114.45,145.69,114.45Z" fill="#cfdeea"/>
                <polygon points="138.92 73.14 140.25 93.05 137.72 53.52 138.92 73.14" fill="#d2e0eb"/>
                <polygon points="161.26 9.9 164.43 6.01 161.24 9.85 161.26 9.9" fill="#cfdeea"/>
                <polygon points="135.36 0 139.58 9.83 147.15 27.22 135.37 0 135.36 0" fill="#e0e8f0"/>
                <polygon points="157.86 164.24 175.73 161.07 143.16 166.62 157.86 164.24" fill="#d2e0eb"/>
                <polygon points="122.19 55.75 138.92 73.14 108.25 41.04 122.19 55.75" fill="#cfdeea"/>
                <path d="M151.26,62.14l-11,30.91s0,0,0,0C140.74,92.48,151.26,62.14,151.26,62.14Z" fill="#d2e0eb"/>
                <path d="M147.15,27.22s-22.43-9.81-22.57-9.81Z" fill="#c1d4e4"/>
                <path d="M166.73,39.19c-1,1.52-15.72,23.09-15.47,23Z" fill="#d2e0eb"/>
                <path d="M140.25,93.05l5.37-5c-3.07,2.83-5.21,4.81-5.37,5C140.24,93.06,140.24,93.06,140.25,93.05Z" fill="#acc6db"/>
                <path d="M122,84.87,94.49,73.49h0Z" fill="#acc6db"/>
                <polygon points="5.65 148.78 37.24 101.23 22.11 123.82 5.65 148.78" fill="#b8cfe0"/>
                <path d="M100,139.12l-8.77,14.06,0,0c4.71-7.34,8.9-13.89,8.9-13.89Z" fill="#cfdeea"/>
                <polygon points="78.39 173.16 109.63 177.7 91.13 174.94 78.39 173.16" fill="#c3d6e5"/>
                <path d="M78.39,173.16c.15-.17,4.14-6.37,8.65-13.41Z" fill="#d2e0eb"/>
                <path d="M22.82,12.78l3.27,13,9,32.1S27.52,30.38,22.82,12.78Z" fill="#c1d4e4"/>
                <path d="M166.64,39.13c-1.75.36-17.9,4.43-17.9,4.43l17.91-4.42Z" fill="#acc6db"/>
                <polygon points="177.19 178.73 157.86 164.24 171.31 174.54 177.1 178.73 177.19 178.73" fill="#e0e8f0"/>
                <path d="M64.68,68c3.74-1.79,43.57-27,43.57-27L64.41,68.14l.09,0Z" fill="#e0e8f0"/>
                <polygon points="179.8 139.93 185.38 138.03 185.38 138.02 179.8 139.9 158.03 147.2 169.54 143.44 179.8 139.93" fill="#c1d4e4"/>
                <path d="M124.58,17.41,108.25,41C108.83,40.4,124.58,17.41,124.58,17.41Z" fill="#acc6db"/>
                <path d="M27.57,152.87l9.93,1.86.15-.15Z" fill="#e5edf4"/>
                <polygon points="75.38 114.5 94.5 73.49 83.7 96.47 75.38 114.5" fill="#c3d6e5"/>
                <polygon points="94.5 73.49 108.25 41.04 102.81 53.87 94.5 73.49" fill="#e0e8f0"/>
                <polygon points="64.05 50.99 35.12 57.83 108.25 41.04 64.05 50.99" fill="#e5edf4"/>
                <polygon points="156.84 87.56 179.8 79.83 140.25 93.05 156.84 87.56" fill="#acc6db"/>
                <path d="M168.24,109.74l-6.53,1.37,6.52-1.35Z" fill="#e0e8f0"/>
                <polygon points="138.33 0 161.14 10.05 161.22 9.95 138.37 0 138.33 0" fill="#d2e0eb"/>
                <polygon points="58.16 132.79 75.38 114.5 58.21 132.73 58.16 132.79" fill="#e0e8f0"/>
                <polygon points="113.43 148.19 100.16 139.27 124.44 155.91 113.43 148.19" fill="#c1d4e4"/>
                <path d="M179.83,20.86l0-.18-32.65,6.54s20,11.89,19.64,11.89" fill="#e0e8f0"/>
                <polyline points="166.79 39.11 179.8 47.15 184.58 50.1 179.83 20.86" fill="#e5edf4"/>
                <path d="M166.79,39.11l-.15,0h0Z" fill="#e5edf4"/>
                <polygon points="166.74 39.19 151.26 62.14 171.04 64.67 166.79 39.11 166.74 39.19" fill="#d2e0eb"/>
                <polygon points="166.79 39.11 171.04 64.67 179.8 55.24 184.58 50.1 179.8 47.15 166.79 39.11" fill="#c1d4e4"/>
                <path d="M140.25,93c.16-.16,2.3-2.14,5.37-5l7.77-7.2S170.78,64.82,171,64.67l-19.78-2.53S140.74,92.48,140.25,93Z" fill="#e5edf4"/>
                <path d="M153.39,80.87l26.41-1L171,64.67C170.78,64.82,153.39,80.87,153.39,80.87Z" fill="#d2e0eb"/>
                <polygon points="145.62 88.07 140.25 93.05 179.8 79.83 153.39 80.87 145.62 88.07" fill="#acc6db"/>
                <polygon points="179.8 102.43 185.51 106.13 179.8 79.83 156.84 87.56 179.8 102.43" fill="#c1d4e4"/>
                <path d="M161.71,111.11l6.53-1.37v0l11.55-2.39,5.71-1.18-5.71-3.7-23-14.87-11.15,26.89C145.52,114.45,155,112.5,161.71,111.11Z" fill="#e0e8f0"/>
                <polygon points="156.84 87.56 140.25 93.05 145.69 114.45 156.84 87.56" fill="#b8cfe0"/>
                <path d="M161.71,111.11c-6.74,1.39-16.19,3.34-16,3.34l15.66,11.75,6.88-16.44Z" fill="#e5edf4"/>
                <polygon points="168.25 109.7 168.24 109.74 168.23 109.76 161.35 126.2 179.8 110.87 185.51 106.13 179.8 107.31 168.25 109.7" fill="#d2e0eb"/>
                <path d="M128.56,132.14l32.79-5.94-15.66-11.75S129,132,128.56,132.14Z" fill="#cfdeea"/>
                <polygon points="158.03 147.2 161.35 126.2 128.56 132.14 158.03 147.2" fill="#e0e8f0"/>
                <polygon points="161.35 126.2 158.03 147.2 179.8 139.9 185.38 138.02 185.41 138.01 185.64 137.94 179.8 135.11 161.35 126.2" fill="#c1d4e4"/>
                <polygon points="158.03 147.2 175.73 161.07 169.54 143.44 158.03 147.2" fill="#c1d4e4"/>
                <polygon points="143.16 166.62 175.73 161.07 158.03 147.2 143.16 166.62" fill="#d2e0eb"/>
                <polygon points="133.74 144.03 143.16 166.62 158.03 147.2 128.56 132.14 133.74 144.03" fill="#cfdeea"/>
                <polygon points="179.4 178.73 175.73 161.07 157.86 164.24 177.19 178.73 179.4 178.73" fill="#e0e8f0"/>
                <polygon points="147.31 178.73 157.86 164.24 143.16 166.62 140.79 178.73 147.31 178.73" fill="#cfdeea"/>
                <polygon points="147.31 178.73 162.87 178.73 171.31 174.54 157.86 164.24 147.31 178.73" fill="#cfdeea"/>
                <polygon points="162.87 178.73 177.1 178.73 171.31 174.54 162.87 178.73" fill="#cfdeea"/>
                <polygon points="161.24 9.85 161.23 9.83 157.88 0 138.37 0 161.22 9.95 161.28 9.98 161.26 9.9 161.24 9.85" fill="#d2e0eb"/>
                <polygon points="138.33 0 135.37 0 147.15 27.22 161.15 10.05 161.14 10.05 138.33 0" fill="#e0e8f0"/>
                <polygon points="145.69 114.45 118.87 113.12 128.56 132.14 145.69 114.45" fill="#c3d6e5"/>
                <path d="M124.45,155.92l-5.71,7.28c.36-.15,24.42,3.42,24.42,3.42L133.74,144l-5.18-11.89Z" fill="#d2e0eb"/>
                <polygon points="145.69 114.45 140.25 93.05 118.87 113.12 145.69 114.45" fill="#c1d4e4"/>
                <path d="M166.73,39.19l.06-.08-.14,0-17.91,4.42,2.52,18.58C151,62.28,165.7,40.71,166.73,39.19Z" fill="#c1d4e4"/>
                <path d="M166.64,39.13l.15,0c.4,0-19.64-11.89-19.64-11.89l1.59,16.34S164.89,39.49,166.64,39.13Z" fill="#acc6db"/>
                <path d="M124.58,17.41c.14,0,22.57,9.81,22.57,9.81L139.58,9.83Z" fill="#e5edf4"/>
                <polygon points="133.81 0 124.58 17.41 139.58 9.83 135.36 0 133.81 0" fill="#acc6db"/>
                <polygon points="121.55 0 124.58 17.41 133.81 0 121.55 0" fill="#e0e8f0"/>
                <polygon points="134.8 28.41 148.74 43.56 147.15 27.22 124.58 17.41 134.8 28.41" fill="#c1d4e4"/>
                <polygon points="151.26 62.14 148.74 43.56 137.72 53.52 151.26 62.14" fill="#e0e8f0"/>
                <polygon points="137.72 53.52 140.25 93.05 151.26 62.14 137.72 53.52" fill="#d2e0eb"/>
                <polygon points="148.74 43.56 134.8 28.41 137.72 53.52 148.74 43.56" fill="#b8cfe0"/>
                <polygon points="137.72 53.52 134.8 28.41 108.25 41.04 137.72 53.52" fill="#c1d4e4"/>
                <polygon points="138.92 73.14 137.72 53.52 108.25 41.04 138.92 73.14" fill="#cfdeea"/>
                <polygon points="122.06 84.88 140.25 93.05 138.92 73.14 122.06 84.88" fill="#e5edf4"/>
                <polygon points="122.06 84.88 138.92 73.14 122.19 55.75 122.06 84.88" fill="#c1d4e4"/>
                <polygon points="118.87 113.12 140.25 93.05 122.06 84.88 118.87 113.12" fill="#b8cfe0"/>
                <path d="M134.8,28.41l-10.22-11S108.83,40.4,108.25,41Z" fill="#b8cfe0"/>
                <path d="M124.58,17.41S90.07,15,89.54,15l18.71,26Z" fill="#acc6db"/>
                <path d="M97.05,0,89.54,15c.53,0,35,2.38,35,2.38L100.12,0Z" fill="#c1d4e4"/>
                <polygon points="100.12 0 124.58 17.41 121.55 0 100.12 0" fill="#e5edf4"/>
                <polygon points="134.83 178.73 140.79 178.73 143.16 166.62 134.83 178.73" fill="#c3d6e5"/>
                <path d="M118.74,163.2l-.21,15.53h16.3l8.33-12.11S119.1,163.05,118.74,163.2Z" fill="#e0e8f0"/>
                <polygon points="118.53 178.73 118.74 163.2 109.72 177.71 109.07 178.73 118.53 178.73" fill="#acc6db"/>
                <polygon points="77.35 178.73 81.04 178.73 78.39 173.16 77.35 178.73" fill="#e0e8f0"/>
                <polygon points="81.04 178.73 109.07 178.73 109.72 177.71 109.63 177.7 78.39 173.16 81.04 178.73" fill="#c3d6e5"/>
                <polygon points="109.72 177.71 118.74 163.2 100.16 139.27 109.72 177.71" fill="#cfdeea"/>
                <polygon points="91.13 174.94 109.63 177.7 109.72 177.71 100.16 139.27 91.13 174.94" fill="#e0e8f0"/>
                <path d="M100.16,139.27s-4.19,6.55-8.9,13.89l0,0L87,159.75c-4.51,7-8.5,13.24-8.65,13.41l12.74,1.78Z" fill="#e5edf4"/>
                <path d="M72.5,0c4.8,4.18,17,15,17,15L97.05,0Z" fill="#e0e8f0"/>
                <path d="M77.33,178.73l1.06-5.57L48,173.55,52,178.73Z" fill="#cfdeea"/>
                <polygon points="100.16 139.27 113.43 148.19 124.44 155.91 100.16 139.27 118.74 163.2 124.45 155.92 128.56 132.14 100.16 139.27" fill="#c1d4e4"/>
                <path d="M94.49,73.49,122,84.87h0l.13-29.13L108.25,41Z" fill="#d2e0eb"/>
                <polygon points="89.54 15.03 60.34 22.76 108.25 41.04 89.54 15.03" fill="#e0e8f0"/>
                <polygon points="82.99 122.03 100.16 138.88 100 139.12 100.16 139.27 128.56 132.14 75.38 114.5 82.99 122.03" fill="#e5edf4"/>
                <path d="M64.5,68.1l.18-.07h0Z" fill="#7ea6c8"/>
                <polygon points="87.05 159.75 91.31 153.14 91.27 153.16 91.23 153.18 91.13 153.34 74.14 161.56 47.95 173.55 78.39 173.16 87.05 159.75" fill="#d2e0eb"/>
                <polygon points="100.16 138.88 82.99 122.03 91.13 153.34 91.23 153.18 100 139.12 100.16 138.88" fill="#cfdeea"/>
                <polygon points="128.56 132.14 118.87 113.12 75.38 114.5 128.56 132.14" fill="#d2e0eb"/>
                <path d="M94.49,73.49l24.38,39.63,3.19-28.24h0Z" fill="#acc6db"/>
                <path d="M64.5,68.1l-.09,0a1,1,0,0,0,.27-.11Z" fill="#e5edf4"/>
                <path d="M64.68,68h0a1,1,0,0,1-.27.11l30.08,5.35h0l8.32-19.62L108.25,41S68.42,66.24,64.68,68Z" fill="#e0e8f0"/>
                <path d="M69.92,0,60.33,22.76,89.54,15S77.3,4.18,72.5,0Z" fill="#e5edf4"/>
                <polygon points="47.67 178.73 52.04 178.73 47.95 173.55 47.67 178.73" fill="#b8cfe0"/>
                <polyline points="47.95 173.55 74.14 161.56 37.5 154.73" fill="#e0e8f0"/>
                <path d="M37.5,154.73l-9.93-1.86c-8.82-1.5-20-3.45-21.72-4L48,173.55" fill="#e5edf4"/>
                <polygon points="94.5 73.49 94.5 73.49 75.38 114.5 118.87 113.12 94.5 73.49 94.5 73.49" fill="#c3d6e5"/>
                <polygon points="108.25 41.04 35.12 57.83 64.41 68.14 108.25 41.04" fill="#e5edf4"/>
                <path d="M22.54,0c9.81,5.46,37.79,22.76,37.79,22.76L69.92,0Z" fill="#cfdeea"/>
                <polygon points="74.14 161.56 91.13 153.34 82.99 122.03 74.14 161.56" fill="#c1d4e4"/>
                <polygon points="75.38 114.5 74.14 161.56 82.99 122.03 75.38 114.5" fill="#e0e8f0"/>
                <polygon points="108.25 41.04 60.34 22.76 64.05 50.99 108.25 41.04" fill="#d2e0eb"/>
                <polygon points="45.53 178.73 47.67 178.73 47.95 173.55 45.53 178.73" fill="#d2e0eb"/>
                <path d="M94.49,73.49h0L64.41,68.14,83.7,96.47Z" fill="#e5edf4"/>
                <polygon points="18.53 178.73 45.53 178.73 47.95 173.55 18.53 178.73" fill="#c3d6e5"/>
                <polyline points="74.14 161.56 75.38 114.5 58.16 132.79" fill="#cfdeea"/>
                <path d="M58.16,132.79,38.57,154.73l-.92-.15-.15.15,36.64,6.83" fill="#d2e0eb"/>
                <polygon points="60.34 22.76 35.12 57.83 64.05 50.99 60.34 22.76" fill="#cfdeea"/>
                <path d="M19.59,0l3.23,12.78c4.7,17.6,12.29,45.05,12.29,45.05L60.33,22.76S32.35,5.46,22.54,0Z" fill="#c1d4e4"/>
                <path d="M.15,178.73H18.53L48,173.55,5.85,148.9a.68.68,0,0,1-.21-.08Z" fill="#d4e1ec"/>
                <polygon points="64.41 68.14 37.24 101.23 75.38 114.5 64.41 68.14" fill="#d2e0eb"/>
                <polygon points="83.7 96.47 64.41 68.14 75.38 114.5 83.7 96.47" fill="#e0e8f0"/>
                <polygon points="64.41 68.14 35.12 57.83 37.24 101.23 64.41 68.14" fill="#cfdeea"/>
                <path d="M0,153.44v25.29H.15l5.49-29.91,0,0Z" fill="#c1d4e4"/>
                <polygon points="0 0 0 8.06 15.99 0 0 0" fill="#e0e8f0"/>
                <polygon points="75.38 114.5 37.24 101.23 58.21 132.73 75.38 114.5" fill="#e0e8f0"/>
                <polygon points="0 52.81 35.12 57.83 26.09 25.73 0 50.3 0 52.81" fill="#e5edf4"/>
                <polygon points="19.59 0 18.54 0 0 46.65 0 50.3 26.09 25.73 22.82 12.78 19.59 0" fill="#e0e8f0"/>
                <path d="M38.57,154.73l19.59-21.94.05-.06L5.65,148.78l0,0,0,0a.68.68,0,0,0,.21.08c1.71.52,12.9,2.47,21.72,4l10.08,1.71Z" fill="#e0e8f0"/>
                <path d="M0,153.44l5.62-4.64,0,0L0,147Z" fill="#acc6db"/>
                <polyline points="58.21 132.73 37.24 101.23 22.19 123.88" fill="#e5edf4"/>
                <polyline points="22.19 123.88 5.65 148.78 58.21 132.73" fill="#c3d6e5"/>
                <polygon points="15.99 0 0 8.06 0 46.65 18.54 0 15.99 0" fill="#d2e0eb"/>
                <polygon points="0 81.55 22.11 123.82 37.24 101.23 0 79.53 0 81.55" fill="#b8cfe0"/>
                <polygon points="0 130.24 22.11 123.82 0 81.55 0 130.24" fill="#acc6db"/>
                <polygon points="0 79.53 37.24 101.23 35.12 57.83 0 77.77 0 79.53" fill="#c3d6e5"/>
                <polygon points="0 77.77 35.12 57.83 0 52.81 0 77.77" fill="#d2e0eb"/>
                <path d="M0,147l5.65,1.82,16.46-25L0,130.29Z" fill="#d4e1ec"/>
                <polygon points="185.55 116.57 185.64 105.69 179.8 79.83 185.51 106.13 185.55 116.57" fill="#acc6db"/>
                <polygon points="179.83 20.86 184.58 50.1 179.8 79.83 185.11 50.1 179.84 20.86 179.83 20.86" fill="#c1d4e4"/>
                <path d="M195,135.29,185.63,138v0c1-.25,4.54-1.28,9.37-2.67Z" fill="#4f87b5"/>
                <polygon points="181.69 178.73 195 178.73 195 167.76 181.69 178.73" fill="#c1d4e4"/>
                <polygon points="183.44 0 191.48 18.6 195 16.82 195 0 183.44 0" fill="#e0e8f0"/>
                <path d="M180.07,178.73h1.62l13.31-11V141.31c-4.66-1.52-8.44-2.77-9.39-3.12Z" fill="#c1d4e4"/>
                <polygon points="195 79.24 179.8 79.83 185.64 105.69 195 95.65 195 79.24" fill="#acc6db"/>
                <polygon points="195 16.82 191.48 18.6 195 25.01 195 16.82" fill="#e5edf4"/>
                <polygon points="185.11 50.1 191.48 18.6 179.84 20.86 185.11 50.1" fill="#c1d4e4"/>
                <polygon points="185.41 138.02 185.41 138.01 185.38 138.02 185.38 138.03 185.41 138.02" fill="#ccdce8"/>
                <polygon points="195 95.65 185.64 105.69 185.55 116.57 185.64 137.47 195 115.64 195 95.65" fill="#e0e8f0"/>
                <polygon points="195 61.06 185.11 50.1 179.8 79.83 195 79.24 195 61.06" fill="#c1d4e4"/>
                <polygon points="195 115.64 185.64 137.47 185.64 137.94 185.63 138.01 195 135.29 195 115.64" fill="#c1d4e4"/>
                <polygon points="185.41 138.02 185.64 137.94 185.41 138.01 185.41 138.02" fill="#578cb8"/>
                <polygon points="195 25.01 191.48 18.6 185.11 50.1 195 51.05 195 25.01" fill="#acc6db"/>
                <polygon points="195 51.05 185.11 50.1 195 61.06 195 51.05" fill="#e5edf4"/>
                <polygon points="179.8 55.24 171.04 64.67 179.8 79.83 184.58 50.1 179.8 55.24" fill="#acc6db"/>
                <polygon points="179.8 110.87 161.35 126.2 179.8 135.11 185.64 137.94 185.64 137.47 185.55 116.57 185.51 106.13 179.8 110.87" fill="#e5edf4"/>
                <polygon points="185.38 138.03 179.8 139.93 169.54 143.44 175.73 161.07 179.8 151.57 185.64 137.94 185.41 138.02 185.38 138.03" fill="#e0e8f0"/>
                <path d="M195,135.36c-4.83,1.39-8.42,2.42-9.37,2.67v-.09l-5.84,13.63-4.07,9.5,3.67,17.66h.67l5.54-40.54c.95.35,4.73,1.6,9.39,3.12Z" fill="#cfdeea"/>
              </g>
              <rect y="45.04" width="195" height="45" fill="#fff"/>
            </g>
          </g>
          <rect x="4.5" y="12.54" width="187" height="118" rx="7.2" fill="none" stroke="#000" stroke-miterlimit="10" stroke-width="0.25"/>
        </g>
        <g>
          <path d="M12.36,51.16h1.05a3.53,3.53,0,0,1,1.22.16,1.35,1.35,0,0,1,.6.51,1.61,1.61,0,0,1,.22.84,1.42,1.42,0,0,1-.29.91,1.47,1.47,0,0,1-.77.5,4.7,4.7,0,0,1-1,.08v2.21h-1Zm1,2h.31a1.55,1.55,0,0,0,.52-.06A.41.41,0,0,0,14.4,53a.49.49,0,0,0,.09-.3.47.47,0,0,0-.24-.44,1.28,1.28,0,0,0-.62-.1h-.28Z" fill="#4d4d4f"/>
          <path d="M19.15,52.52h1v3.85h-1V56a1.93,1.93,0,0,1-.57.39,1.75,1.75,0,0,1-.62.11,1.71,1.71,0,0,1-1.28-.57,2,2,0,0,1-.55-1.44A2.06,2.06,0,0,1,16.66,53a1.66,1.66,0,0,1,1.28-.57,1.61,1.61,0,0,1,.65.13,1.89,1.89,0,0,1,.56.39Zm-1,.79a1,1,0,0,0-.74.32,1.13,1.13,0,0,0-.3.81,1.17,1.17,0,0,0,.3.82,1,1,0,0,0,.75.32,1,1,0,0,0,.75-.32,1.14,1.14,0,0,0,.3-.83,1.13,1.13,0,0,0-.3-.81A1,1,0,0,0,18.13,53.31Z" fill="#4d4d4f"/>
          <path d="M20.66,52.52h1l1,2.41,1.1-2.41h1l-2.41,5.25h-1l.79-1.69Z" fill="#4d4d4f"/>
          <path d="M30.16,52.52h1v3.85h-1V56a1.93,1.93,0,0,1-.57.39,1.8,1.8,0,0,1-.62.11,1.75,1.75,0,0,1-1.29-.57,2,2,0,0,1-.54-1.44A2,2,0,0,1,27.67,53a1.66,1.66,0,0,1,1.27-.57,1.57,1.57,0,0,1,.65.13,1.93,1.93,0,0,1,.57.39Zm-1,.79a1,1,0,0,0-.74.32,1.13,1.13,0,0,0-.3.81,1.17,1.17,0,0,0,.3.82,1,1,0,0,0,.74.32,1,1,0,0,0,.76-.32,1.14,1.14,0,0,0,.3-.83,1.13,1.13,0,0,0-.3-.81A1,1,0,0,0,29.14,53.31Z" fill="#4d4d4f"/>
          <path d="M34.45,53.06l-.6.59a1,1,0,0,0-.66-.36.44.44,0,0,0-.25.07.21.21,0,0,0-.09.17.3.3,0,0,0,0,.15,1.2,1.2,0,0,0,.29.17l.36.18a2.16,2.16,0,0,1,.76.56,1.12,1.12,0,0,1,.21.68,1.1,1.1,0,0,1-.37.85,1.45,1.45,0,0,1-1,.34,1.61,1.61,0,0,1-1.35-.65l.6-.65a1.34,1.34,0,0,0,.39.32.93.93,0,0,0,.41.12.5.5,0,0,0,.31-.09.28.28,0,0,0,.11-.21c0-.15-.14-.3-.42-.44l-.32-.16c-.62-.31-.94-.71-.94-1.18a1,1,0,0,1,.36-.78,1.29,1.29,0,0,1,.9-.32,1.52,1.52,0,0,1,1.26.64Z" fill="#4d4d4f"/>
          <path d="M37.2,51h1v5.34h-1Z" fill="#4d4d4f"/>
          <path d="M39.42,50.93a.61.61,0,0,1,.44.19.6.6,0,0,1,.18.44.59.59,0,0,1-.18.44.62.62,0,0,1-.87-.89A.58.58,0,0,1,39.42,50.93Zm-.48,1.59h1v3.85h-1Z" fill="#4d4d4f"/>
          <path d="M40.9,51.1h1v1.42h.58v.83h-.58v3h-1v-3h-.5v-.83h.5Z" fill="#4d4d4f"/>
          <path d="M43.07,51.1h1v1.42h.58v.83H44v3h-1v-3h-.5v-.83h.5Z" fill="#4d4d4f"/>
          <path d="M45,51h1v5.34H45Z" fill="#4d4d4f"/>
          <path d="M50.71,54.72h-3.1a1.08,1.08,0,0,0,.36.65,1.1,1.1,0,0,0,.75.25,1.3,1.3,0,0,0,.93-.38l.81.38a1.93,1.93,0,0,1-.73.64,2.25,2.25,0,0,1-1,.2,2,2,0,0,1-1.47-.57,1.93,1.93,0,0,1-.57-1.43A2,2,0,0,1,47.25,53a1.89,1.89,0,0,1,1.42-.58,2,2,0,0,1,1.48.58,2.11,2.11,0,0,1,.57,1.54Zm-1-.76a1,1,0,0,0-.38-.52,1.07,1.07,0,0,0-.65-.2,1.15,1.15,0,0,0-.71.22,1.29,1.29,0,0,0-.36.5Z" fill="#4d4d4f"/>
          <path d="M56.36,52.52h1v3.85h-1V56a1.93,1.93,0,0,1-.57.39,1.74,1.74,0,0,1-.61.11,1.72,1.72,0,0,1-1.29-.57,2.22,2.22,0,0,1,0-2.9,1.68,1.68,0,0,1,1.28-.57,1.57,1.57,0,0,1,.65.13,1.89,1.89,0,0,1,.56.39Zm-1,.79a1,1,0,0,0-.75.32,1.27,1.27,0,0,0,0,1.63,1,1,0,0,0,1.49,0,1.14,1.14,0,0,0,.3-.83,1.13,1.13,0,0,0-.3-.81A1,1,0,0,0,55.35,53.31Z" fill="#4d4d4f"/>
          <path d="M60.66,53.06l-.6.59a1,1,0,0,0-.66-.36.47.47,0,0,0-.26.07.21.21,0,0,0-.09.17.24.24,0,0,0,.06.15,1,1,0,0,0,.29.17l.35.18a2.21,2.21,0,0,1,.77.56,1.12,1.12,0,0,1,.21.68,1.11,1.11,0,0,1-.38.85,1.44,1.44,0,0,1-1,.34A1.58,1.58,0,0,1,58,55.81l.59-.65a1.38,1.38,0,0,0,.4.32.89.89,0,0,0,.4.12.5.5,0,0,0,.31-.09.26.26,0,0,0,.12-.21c0-.15-.14-.3-.42-.44l-.33-.16c-.62-.31-.93-.71-.93-1.18a1,1,0,0,1,.35-.78,1.32,1.32,0,0,1,.9-.32,1.57,1.57,0,0,1,.71.16A1.6,1.6,0,0,1,60.66,53.06Z" fill="#4d4d4f"/>
        </g>
        <g>
          <path d="M119.24,101.15V97h.66a3.36,3.36,0,0,1,.84.08,1.09,1.09,0,0,1,.59.37,1,1,0,0,1,.23.63,1,1,0,0,1-.1.44,1.11,1.11,0,0,1-.33.36,1.26,1.26,0,0,1,.55.45,1.12,1.12,0,0,1,.18.64,1.19,1.19,0,0,1-.18.64,1.14,1.14,0,0,1-.47.43,1.74,1.74,0,0,1-.79.15Zm.8-3.43v.89h.17a.63.63,0,0,0,.43-.13.4.4,0,0,0,.15-.33.4.4,0,0,0-.14-.31.59.59,0,0,0-.41-.12Zm0,1.6v1.07h.2a1.18,1.18,0,0,0,.67-.13.42.42,0,0,0,.17-.36.54.54,0,0,0-.2-.43,1.18,1.18,0,0,0-.68-.15Z" fill="#5d94c3"/>
          <path d="M122.56,97h.79v4.19h-.79Z" fill="#5d94c3"/>
          <path d="M124.25,97H125l1.79,2.76V97h.79v4.19h-.76l-1.79-2.75v2.75h-.8Z" fill="#5d94c3"/>
          <path d="M128.9,98a.43.43,0,0,1,.31.14.43.43,0,0,1,0,.62.42.42,0,0,1-.31.13.45.45,0,0,1-.32-.12.44.44,0,0,1-.13-.32.4.4,0,0,1,.13-.31A.43.43,0,0,1,128.9,98Zm0,2.37a.42.42,0,0,1,.31.13.4.4,0,0,1,.13.31.44.44,0,0,1-.13.32.46.46,0,0,1-.31.13.46.46,0,0,1-.32-.13.44.44,0,0,1-.13-.32.4.4,0,0,1,.13-.31A.42.42,0,0,1,128.9,100.34Z" fill="#5d94c3"/>
          <path d="M133,96.86a1.4,1.4,0,0,1,.79.22,1.43,1.43,0,0,1,.51.69,3.69,3.69,0,0,1,.18,1.29,3.44,3.44,0,0,1-.19,1.29,1.46,1.46,0,0,1-.49.69,1.38,1.38,0,0,1-.78.21,1.32,1.32,0,0,1-.79-.22,1.34,1.34,0,0,1-.51-.66,3.53,3.53,0,0,1-.18-1.27,3,3,0,0,1,.36-1.67A1.26,1.26,0,0,1,133,96.86Zm0,.76a.51.51,0,0,0-.35.13.74.74,0,0,0-.24.44,3.66,3.66,0,0,0-.08.92,2.34,2.34,0,0,0,.18,1.1.57.57,0,0,0,.49.3.5.5,0,0,0,.46-.28,2.36,2.36,0,0,0,.21-1.16,2.51,2.51,0,0,0-.18-1.14A.56.56,0,0,0,133,97.62Z"/>
          <path d="M136.22,96.86a1.38,1.38,0,0,1,.79.22,1.43,1.43,0,0,1,.51.69,4.71,4.71,0,0,1,0,2.58,1.55,1.55,0,0,1-.5.69,1.35,1.35,0,0,1-.78.21,1.34,1.34,0,0,1-.79-.22,1.4,1.4,0,0,1-.51-.66,3.53,3.53,0,0,1-.18-1.27,3,3,0,0,1,.36-1.67A1.26,1.26,0,0,1,136.22,96.86Zm0,.76a.52.52,0,0,0-.36.13.8.8,0,0,0-.24.44,3.66,3.66,0,0,0-.08.92,2.2,2.2,0,0,0,.19,1.1.56.56,0,0,0,.49.3.52.52,0,0,0,.46-.28,3.58,3.58,0,0,0,0-2.3A.56.56,0,0,0,136.24,97.62Z"/>
          <path d="M139.48,96.86a1.38,1.38,0,0,1,.79.22,1.43,1.43,0,0,1,.51.69,4.71,4.71,0,0,1,0,2.58,1.55,1.55,0,0,1-.5.69,1.54,1.54,0,0,1-1.57,0,1.4,1.4,0,0,1-.51-.66A3.53,3.53,0,0,1,138,99.1a3,3,0,0,1,.36-1.67A1.26,1.26,0,0,1,139.48,96.86Zm0,.76a.52.52,0,0,0-.36.13.86.86,0,0,0-.24.44,4.21,4.21,0,0,0-.08.92,2.2,2.2,0,0,0,.19,1.1.56.56,0,0,0,.49.3.52.52,0,0,0,.46-.28,3.58,3.58,0,0,0,0-2.3A.56.56,0,0,0,139.5,97.62Z"/>
          <path d="M142.74,96.86a1.38,1.38,0,0,1,.79.22,1.43,1.43,0,0,1,.51.69,4.71,4.71,0,0,1,0,2.58,1.48,1.48,0,0,1-.5.69,1.37,1.37,0,0,1-2.07-.67,3.29,3.29,0,0,1-.19-1.27,3,3,0,0,1,.36-1.67A1.26,1.26,0,0,1,142.74,96.86Zm0,.76a.52.52,0,0,0-.36.13.86.86,0,0,0-.24.44,4.21,4.21,0,0,0-.08.92,2.2,2.2,0,0,0,.19,1.1.56.56,0,0,0,.49.3.52.52,0,0,0,.46-.28,2.38,2.38,0,0,0,.2-1.16,2.51,2.51,0,0,0-.18-1.14A.53.53,0,0,0,142.76,97.62Z"/>
          <path d="M146,96.86a1.36,1.36,0,0,1,.79.22,1.43,1.43,0,0,1,.51.69,4.71,4.71,0,0,1,0,2.58,1.53,1.53,0,0,1-.49.69,1.39,1.39,0,0,1-.79.21,1.34,1.34,0,0,1-.79-.22,1.38,1.38,0,0,1-.5-.66,3.5,3.5,0,0,1-.19-1.27,3,3,0,0,1,.36-1.67A1.26,1.26,0,0,1,146,96.86Zm0,.76a.53.53,0,0,0-.36.13.86.86,0,0,0-.24.44,4.21,4.21,0,0,0-.08.92,2.2,2.2,0,0,0,.19,1.1.57.57,0,0,0,.49.3.51.51,0,0,0,.46-.28,2.36,2.36,0,0,0,.21-1.16,2.48,2.48,0,0,0-.19-1.14A.53.53,0,0,0,146,97.62Z"/>
          <path d="M119.24,104h.84a2.86,2.86,0,0,1,1,.13,1,1,0,0,1,.48.41,1.23,1.23,0,0,1,.17.68,1.17,1.17,0,0,1-.22.73,1.25,1.25,0,0,1-.63.4,3.8,3.8,0,0,1-.83.06v1.78h-.8Zm.8,1.64h.25a1.19,1.19,0,0,0,.41,0,.33.33,0,0,0,.19-.14.41.41,0,0,0,.06-.23.39.39,0,0,0-.18-.36,1.16,1.16,0,0,0-.51-.08H120Z" fill="#5d94c3"/>
          <path d="M126.35,104.69l-.56.53a1.72,1.72,0,0,0-1.28-.6,1.36,1.36,0,0,0-1,.41,1.38,1.38,0,0,0-.41,1,1.47,1.47,0,0,0,.18.74,1.34,1.34,0,0,0,.52.51,1.54,1.54,0,0,0,.74.19,1.61,1.61,0,0,0,.63-.13,2.55,2.55,0,0,0,.63-.47l.54.56a3.14,3.14,0,0,1-.87.63,2.55,2.55,0,0,1-.95.17,2.19,2.19,0,0,1-1.12-4.1,2.36,2.36,0,0,1,1.14-.29,2.44,2.44,0,0,1,1.82.84Z" fill="#5d94c3"/>
          <path d="M127.05,104h.76l1.79,2.76V104h.8v4.19h-.77l-1.79-2.75v2.75h-.79Z" fill="#5d94c3"/>
          <path d="M131.69,105a.44.44,0,0,1,.45.45.46.46,0,0,1-.13.31.45.45,0,0,1-.77-.31.44.44,0,0,1,.45-.45Zm0,2.37a.44.44,0,0,1,.32.75.44.44,0,0,1-.64,0,.44.44,0,0,1,.32-.75Z" fill="#5d94c3"/>
          <path d="M135.75,103.85a1.36,1.36,0,0,1,.79.22,1.43,1.43,0,0,1,.51.69,4.71,4.71,0,0,1,0,2.58,1.45,1.45,0,0,1-.49.68,1.32,1.32,0,0,1-.79.22A1.34,1.34,0,0,1,135,108a1.43,1.43,0,0,1-.5-.66,3.5,3.5,0,0,1-.19-1.27,3,3,0,0,1,.36-1.67A1.26,1.26,0,0,1,135.75,103.85Zm0,.75a.59.59,0,0,0-.36.13,1,1,0,0,0-.24.45,4.21,4.21,0,0,0-.08.92,2.2,2.2,0,0,0,.19,1.1.57.57,0,0,0,.49.3.5.5,0,0,0,.46-.29,2.34,2.34,0,0,0,.21-1.16,2.43,2.43,0,0,0-.19-1.13A.55.55,0,0,0,135.77,104.6Z"/>
          <path d="M139,103.85a1.36,1.36,0,0,1,.79.22,1.43,1.43,0,0,1,.51.69,4.71,4.71,0,0,1,0,2.58,1.45,1.45,0,0,1-.49.68,1.31,1.31,0,0,1-.78.22,1.37,1.37,0,0,1-.8-.22,1.43,1.43,0,0,1-.5-.66,3.53,3.53,0,0,1-.18-1.27,3,3,0,0,1,.35-1.67A1.27,1.27,0,0,1,139,103.85Zm0,.75a.61.61,0,0,0-.36.13,1,1,0,0,0-.24.45,4.21,4.21,0,0,0-.08.92,2.32,2.32,0,0,0,.19,1.1.57.57,0,0,0,.49.3.5.5,0,0,0,.46-.29,2.34,2.34,0,0,0,.21-1.16,2.31,2.31,0,0,0-.19-1.13A.55.55,0,0,0,139,104.6Z"/>
          <path d="M142.27,103.85a1.36,1.36,0,0,1,.79.22,1.43,1.43,0,0,1,.51.69,4.71,4.71,0,0,1,0,2.58,1.45,1.45,0,0,1-.49.68,1.31,1.31,0,0,1-.78.22,1.37,1.37,0,0,1-.8-.22,1.43,1.43,0,0,1-.5-.66,3.53,3.53,0,0,1-.18-1.27,3.08,3.08,0,0,1,.35-1.67A1.27,1.27,0,0,1,142.27,103.85Zm0,.75a.61.61,0,0,0-.36.13.86.86,0,0,0-.23.45,3.58,3.58,0,0,0-.09.92,2.32,2.32,0,0,0,.19,1.1.57.57,0,0,0,.49.3.5.5,0,0,0,.46-.29,2.34,2.34,0,0,0,.21-1.16,2.31,2.31,0,0,0-.19-1.13A.55.55,0,0,0,142.29,104.6Z"/>
          <path d="M145.54,103.85a1.35,1.35,0,0,1,.78.22,1.51,1.51,0,0,1,.52.69,3.69,3.69,0,0,1,.18,1.29,3.44,3.44,0,0,1-.19,1.29,1.38,1.38,0,0,1-.49.68,1.31,1.31,0,0,1-.78.22,1.37,1.37,0,0,1-.8-.22,1.43,1.43,0,0,1-.5-.66,3.53,3.53,0,0,1-.18-1.27,3.08,3.08,0,0,1,.35-1.67A1.28,1.28,0,0,1,145.54,103.85Zm0,.75a.56.56,0,0,0-.35.13.8.8,0,0,0-.24.45,3.66,3.66,0,0,0-.08.92,2.34,2.34,0,0,0,.18,1.1.57.57,0,0,0,.49.3.49.49,0,0,0,.46-.29,2.34,2.34,0,0,0,.21-1.16,2.31,2.31,0,0,0-.19-1.13A.55.55,0,0,0,145.55,104.6Z"/>
          <path d="M148.8,103.85a1.35,1.35,0,0,1,.78.22,1.38,1.38,0,0,1,.52.69,3.69,3.69,0,0,1,.18,1.29,3.44,3.44,0,0,1-.19,1.29,1.38,1.38,0,0,1-.49.68,1.51,1.51,0,0,1-1.57,0,1.39,1.39,0,0,1-.51-.66,3.53,3.53,0,0,1-.18-1.27,3,3,0,0,1,.36-1.67A1.26,1.26,0,0,1,148.8,103.85Zm0,.75a.56.56,0,0,0-.35.13.8.8,0,0,0-.24.45,3.66,3.66,0,0,0-.08.92,2.34,2.34,0,0,0,.18,1.1.57.57,0,0,0,.49.3.49.49,0,0,0,.46-.29,2.34,2.34,0,0,0,.21-1.16,2.31,2.31,0,0,0-.19-1.13A.55.55,0,0,0,148.81,104.6Z"/>
          <path d="M152.06,103.85a1.38,1.38,0,0,1,.79.22,1.43,1.43,0,0,1,.51.69,4.71,4.71,0,0,1,0,2.58,1.46,1.46,0,0,1-.5.68,1.28,1.28,0,0,1-.78.22,1.34,1.34,0,0,1-.79-.22,1.45,1.45,0,0,1-.51-.66,3.53,3.53,0,0,1-.18-1.27,3,3,0,0,1,.36-1.67A1.26,1.26,0,0,1,152.06,103.85Zm0,.75a.57.57,0,0,0-.36.13.87.87,0,0,0-.24.45,3.66,3.66,0,0,0-.08.92,2.2,2.2,0,0,0,.19,1.1.56.56,0,0,0,.49.3.51.51,0,0,0,.46-.29,3.55,3.55,0,0,0,0-2.29A.57.57,0,0,0,152.08,104.6Z"/>
          <path d="M155.32,103.85a1.38,1.38,0,0,1,.79.22,1.43,1.43,0,0,1,.51.69,4.71,4.71,0,0,1,0,2.58,1.4,1.4,0,0,1-.5.68,1.26,1.26,0,0,1-.78.22,1.34,1.34,0,0,1-.79-.22,1.45,1.45,0,0,1-.51-.66,3.53,3.53,0,0,1-.18-1.27,3,3,0,0,1,.36-1.67A1.26,1.26,0,0,1,155.32,103.85Zm0,.75a.57.57,0,0,0-.36.13,1,1,0,0,0-.24.45,4.21,4.21,0,0,0-.08.92,2.2,2.2,0,0,0,.19,1.1.56.56,0,0,0,.49.3.51.51,0,0,0,.46-.29,2.36,2.36,0,0,0,.2-1.16,2.46,2.46,0,0,0-.18-1.13A.57.57,0,0,0,155.34,104.6Z"/>
          <path d="M158.58,103.85a1.38,1.38,0,0,1,.79.22,1.43,1.43,0,0,1,.51.69,4.71,4.71,0,0,1,0,2.58,1.4,1.4,0,0,1-.5.68,1.26,1.26,0,0,1-.78.22,1.34,1.34,0,0,1-.79-.22,1.37,1.37,0,0,1-.5-.66,3.29,3.29,0,0,1-.19-1.27,3,3,0,0,1,.36-1.67A1.26,1.26,0,0,1,158.58,103.85Zm0,.75a.57.57,0,0,0-.36.13,1,1,0,0,0-.24.45,4.21,4.21,0,0,0-.08.92,2.2,2.2,0,0,0,.19,1.1.56.56,0,0,0,.49.3.51.51,0,0,0,.46-.29,2.36,2.36,0,0,0,.2-1.16,2.46,2.46,0,0,0-.18-1.13A.56.56,0,0,0,158.6,104.6Z"/>
          <path d="M123.1,111.62l-.56.56a1.64,1.64,0,0,0-1.24-.57,1.43,1.43,0,0,0-1,.41,1.36,1.36,0,0,0-.42,1,1.44,1.44,0,0,0,.43,1,1.49,1.49,0,0,0,1.07.42,1.28,1.28,0,0,0,.7-.18,1.11,1.11,0,0,0,.45-.54h-1.21V113h2.11v.18a2.06,2.06,0,0,1-.28,1,2,2,0,0,1-.74.75,2.11,2.11,0,0,1-1.06.26,2.46,2.46,0,0,1-1.16-.28,2.1,2.1,0,0,1-.81-.81,2.25,2.25,0,0,1-.3-1.13,2.12,2.12,0,0,1,.55-1.44,2.18,2.18,0,0,1,1.7-.74,2.52,2.52,0,0,1,1,.21A2.26,2.26,0,0,1,123.1,111.62Z" fill="#5d94c3"/>
          <path d="M124.19,110.94H125a2.91,2.91,0,0,1,1,.12,1.09,1.09,0,0,1,.47.41,1.28,1.28,0,0,1,.18.68,1.1,1.1,0,0,1-.79,1.11l1,1.86H126l-.94-1.77H125v1.77h-.79Zm.79,1.64h.25a1.07,1.07,0,0,0,.53-.1.4.4,0,0,0,.14-.34.35.35,0,0,0-.07-.23.4.4,0,0,0-.19-.15,1.5,1.5,0,0,0-.44,0H125Z" fill="#5d94c3"/>
          <path d="M129.49,110.83a2.06,2.06,0,0,1,1.52.65,2.12,2.12,0,0,1,.64,1.56,2.1,2.1,0,0,1-.63,1.55,2.17,2.17,0,0,1-3.09,0,2.23,2.23,0,0,1-.34-2.65,2.19,2.19,0,0,1,.8-.8A2.12,2.12,0,0,1,129.49,110.83Zm0,.78a1.31,1.31,0,0,0-1,.41,1.41,1.41,0,0,0-.39,1,1.33,1.33,0,0,0,.49,1.1,1.39,1.39,0,0,0,.89.32,1.32,1.32,0,0,0,1-.41,1.4,1.4,0,0,0,.39-1,1.37,1.37,0,0,0-.4-1A1.28,1.28,0,0,0,129.48,111.61Z" fill="#5d94c3"/>
          <path d="M132.37,110.94h.8v2.71a1.42,1.42,0,0,0,.06.49.47.47,0,0,0,.21.23.58.58,0,0,0,.33.09.62.62,0,0,0,.37-.1.53.53,0,0,0,.21-.24,1.78,1.78,0,0,0,.06-.57v-2.61h.8v2.49a3.4,3.4,0,0,1-.08.88,1.08,1.08,0,0,1-.27.47,1.18,1.18,0,0,1-.46.34,1.62,1.62,0,0,1-.61.11A1.46,1.46,0,0,1,133,115a1.25,1.25,0,0,1-.48-.52,2.72,2.72,0,0,1-.15-1.07Z" fill="#5d94c3"/>
          <path d="M136.13,110.94H137a2.63,2.63,0,0,1,1,.13,1,1,0,0,1,.48.41,1.31,1.31,0,0,1,.17.67,1.08,1.08,0,0,1-.23.73,1.17,1.17,0,0,1-.62.41,3.85,3.85,0,0,1-.84.06v1.77h-.79Zm.79,1.64h.26a1.28,1.28,0,0,0,.41,0,.32.32,0,0,0,.18-.14.36.36,0,0,0,.07-.24.37.37,0,0,0-.19-.35,1,1,0,0,0-.5-.08h-.23Z" fill="#5d94c3"/>
          <path d="M139.73,112a.4.4,0,0,1,.31.13.42.42,0,0,1,.13.32.42.42,0,0,1-.13.31.4.4,0,0,1-.31.13.42.42,0,0,1-.32-.13.46.46,0,0,1-.13-.31.46.46,0,0,1,.13-.32A.42.42,0,0,1,139.73,112Zm0,2.36a.44.44,0,0,1,.31.13.42.42,0,0,1,.13.32.42.42,0,0,1-.13.31.4.4,0,0,1-.31.13.42.42,0,0,1-.32-.13.46.46,0,0,1-.13-.31.44.44,0,0,1,.45-.45Z" fill="#5d94c3"/>
          <path d="M143.79,110.83a1.39,1.39,0,0,1,.79.23,1.43,1.43,0,0,1,.51.69,3.59,3.59,0,0,1,.18,1.28,3.71,3.71,0,0,1-.18,1.3,1.46,1.46,0,0,1-.5.68,1.26,1.26,0,0,1-.78.22A1.34,1.34,0,0,1,143,115a1.48,1.48,0,0,1-.51-.67,3.49,3.49,0,0,1-.18-1.27,3,3,0,0,1,.36-1.67A1.26,1.26,0,0,1,143.79,110.83Zm0,.76a.52.52,0,0,0-.36.13,1,1,0,0,0-.24.45,4.14,4.14,0,0,0-.08.92,2.22,2.22,0,0,0,.19,1.1.56.56,0,0,0,.49.3.53.53,0,0,0,.46-.29,2.38,2.38,0,0,0,.2-1.16,2.51,2.51,0,0,0-.18-1.14A.58.58,0,0,0,143.81,111.59Z"/>
          <path d="M147.05,110.83a1.36,1.36,0,0,1,.79.23,1.43,1.43,0,0,1,.51.69,3.59,3.59,0,0,1,.18,1.28,3.71,3.71,0,0,1-.18,1.3,1.45,1.45,0,0,1-.49.68,1.32,1.32,0,0,1-.79.22,1.34,1.34,0,0,1-.79-.22,1.46,1.46,0,0,1-.5-.67,3.46,3.46,0,0,1-.19-1.27,3,3,0,0,1,.36-1.67A1.26,1.26,0,0,1,147.05,110.83Zm0,.76a.53.53,0,0,0-.36.13,1,1,0,0,0-.24.45,4.14,4.14,0,0,0-.08.92,2.22,2.22,0,0,0,.19,1.1.57.57,0,0,0,.49.3.52.52,0,0,0,.46-.29,2.36,2.36,0,0,0,.21-1.16,2.48,2.48,0,0,0-.19-1.14A.55.55,0,0,0,147.07,111.59Z"/>
          <path d="M150.31,110.83a1.36,1.36,0,0,1,.79.23,1.43,1.43,0,0,1,.51.69,3.59,3.59,0,0,1,.18,1.28,3.71,3.71,0,0,1-.18,1.3,1.45,1.45,0,0,1-.49.68,1.32,1.32,0,0,1-.79.22,1.34,1.34,0,0,1-.79-.22,1.46,1.46,0,0,1-.5-.67,3.49,3.49,0,0,1-.18-1.27,3,3,0,0,1,.35-1.67A1.26,1.26,0,0,1,150.31,110.83Zm0,.76a.55.55,0,0,0-.36.13,1,1,0,0,0-.24.45,4.14,4.14,0,0,0-.08.92,2.22,2.22,0,0,0,.19,1.1.57.57,0,0,0,.49.3.52.52,0,0,0,.46-.29A2.36,2.36,0,0,0,151,113a2.48,2.48,0,0,0-.19-1.14A.55.55,0,0,0,150.33,111.59Z"/>
          <path d="M153.57,110.83a1.36,1.36,0,0,1,.79.23,1.43,1.43,0,0,1,.51.69,3.59,3.59,0,0,1,.18,1.28,3.71,3.71,0,0,1-.18,1.3,1.45,1.45,0,0,1-.49.68,1.31,1.31,0,0,1-.78.22,1.37,1.37,0,0,1-.8-.22,1.46,1.46,0,0,1-.5-.67,3.49,3.49,0,0,1-.18-1.27,3.12,3.12,0,0,1,.35-1.67A1.27,1.27,0,0,1,153.57,110.83Zm0,.76a.55.55,0,0,0-.36.13.86.86,0,0,0-.23.45,3.52,3.52,0,0,0-.09.92,2.35,2.35,0,0,0,.19,1.1.57.57,0,0,0,.49.3.52.52,0,0,0,.46-.29,3.41,3.41,0,0,0,0-2.3A.55.55,0,0,0,153.59,111.59Z"/>
          <path d="M156.83,110.83a1.36,1.36,0,0,1,.79.23,1.51,1.51,0,0,1,.52.69,3.59,3.59,0,0,1,.18,1.28,3.68,3.68,0,0,1-.19,1.3,1.38,1.38,0,0,1-.49.68,1.31,1.31,0,0,1-.78.22,1.37,1.37,0,0,1-.8-.22,1.46,1.46,0,0,1-.5-.67,3.49,3.49,0,0,1-.18-1.27,3.12,3.12,0,0,1,.35-1.67A1.27,1.27,0,0,1,156.83,110.83Zm0,.76a.51.51,0,0,0-.35.13.8.8,0,0,0-.24.45,3.52,3.52,0,0,0-.09.92,2.35,2.35,0,0,0,.19,1.1.57.57,0,0,0,.49.3.51.51,0,0,0,.46-.29,3.41,3.41,0,0,0,0-2.3A.55.55,0,0,0,156.85,111.59Z"/>
          <path d="M160.1,110.83a1.35,1.35,0,0,1,.78.23,1.38,1.38,0,0,1,.52.69,3.59,3.59,0,0,1,.18,1.28,3.46,3.46,0,0,1-.19,1.3,1.38,1.38,0,0,1-.49.68,1.51,1.51,0,0,1-1.57,0,1.42,1.42,0,0,1-.51-.67,3.49,3.49,0,0,1-.18-1.27,3,3,0,0,1,.36-1.67A1.26,1.26,0,0,1,160.1,110.83Zm0,.76a.51.51,0,0,0-.35.13.8.8,0,0,0-.24.45,3.61,3.61,0,0,0-.08.92,2.37,2.37,0,0,0,.18,1.1.57.57,0,0,0,.49.3.51.51,0,0,0,.46-.29,3.41,3.41,0,0,0,0-2.3A.55.55,0,0,0,160.11,111.59Z"/>
          <path d="M163.36,110.83a1.39,1.39,0,0,1,.79.23,1.43,1.43,0,0,1,.51.69,3.59,3.59,0,0,1,.18,1.28,3.71,3.71,0,0,1-.18,1.3,1.46,1.46,0,0,1-.5.68,1.28,1.28,0,0,1-.78.22,1.34,1.34,0,0,1-.79-.22,1.48,1.48,0,0,1-.51-.67,3.49,3.49,0,0,1-.18-1.27,3,3,0,0,1,.36-1.67A1.26,1.26,0,0,1,163.36,110.83Zm0,.76a.52.52,0,0,0-.36.13.8.8,0,0,0-.24.45,3.61,3.61,0,0,0-.08.92,2.22,2.22,0,0,0,.19,1.1.55.55,0,0,0,.49.3.51.51,0,0,0,.45-.29A2.36,2.36,0,0,0,164,113a2.51,2.51,0,0,0-.18-1.14A.58.58,0,0,0,163.38,111.59Z"/>
          <path d="M119.19,117.93H120v4.18h-.79Z" fill="#5d94c3"/>
          <path d="M120.87,117.93h.95a3,3,0,0,1,1.35.23,1.71,1.71,0,0,1,.73.73,2.38,2.38,0,0,1,.29,1.19,2.35,2.35,0,0,1-.16.89,2,2,0,0,1-.44.67,1.6,1.6,0,0,1-.62.37,4.3,4.3,0,0,1-1.14.1h-1Zm.79.77v2.63H122a2,2,0,0,0,.8-.12,1,1,0,0,0,.4-.42,1.61,1.61,0,0,0,.15-.73,1.37,1.37,0,0,0-.37-1,1.48,1.48,0,0,0-1.08-.33Z" fill="#5d94c3"/>
          <path d="M125.29,118.94a.4.4,0,0,1,.31.13.42.42,0,0,1,.13.31.42.42,0,0,1-.13.32.44.44,0,0,1-.31.13.44.44,0,0,1-.45-.45.42.42,0,0,1,.13-.31A.42.42,0,0,1,125.29,118.94Zm0,2.36a.4.4,0,0,1,.31.13.42.42,0,0,1,.13.31.42.42,0,0,1-.13.32.4.4,0,0,1-.31.13.44.44,0,0,1-.45-.45.42.42,0,0,1,.13-.31A.42.42,0,0,1,125.29,121.3Z" fill="#5d94c3"/>
          <path d="M128.69,117.93h1.19v4.18h-.79v-3.43h-.86Z"/>
          <path d="M132,119.28h-.78a1.52,1.52,0,0,1,.43-1.07,1.36,1.36,0,0,1,1-.39,1.47,1.47,0,0,1,.67.16,1.22,1.22,0,0,1,.46.47,1.16,1.16,0,0,1,.18.61,1.88,1.88,0,0,1-.21.81,4.36,4.36,0,0,1-.78,1l-.47.49H134v.74h-2.89v-.38l1.29-1.32a3.87,3.87,0,0,0,.62-.76,1.06,1.06,0,0,0,.16-.52.51.51,0,0,0-.16-.4.56.56,0,0,0-.41-.16.53.53,0,0,0-.43.19A.73.73,0,0,0,132,119.28Z"/>
          <path d="M135.36,119h-.77a1.19,1.19,0,0,1,.34-.74,1.24,1.24,0,0,1,.95-.4,1.22,1.22,0,0,1,.87.33,1,1,0,0,1,.35.78,1,1,0,0,1-.16.51,1.16,1.16,0,0,1-.44.37,1.14,1.14,0,0,1,.6.4,1.06,1.06,0,0,1,.21.66,1.28,1.28,0,0,1-.41,1,1.49,1.49,0,0,1-1.06.39,1.38,1.38,0,0,1-1-.37,1.42,1.42,0,0,1-.42-1h.78a.84.84,0,0,0,.23.48.66.66,0,0,0,.44.16.62.62,0,0,0,.46-.18.58.58,0,0,0,.19-.44.61.61,0,0,0-.25-.48,1.13,1.13,0,0,0-.71-.2v-.69a1,1,0,0,0,.42-.09.44.44,0,0,0,.22-.18.46.46,0,0,0,.08-.25.38.38,0,0,0-.12-.28.45.45,0,0,0-.31-.11.5.5,0,0,0-.31.1A.52.52,0,0,0,135.36,119Z"/>
          <path d="M139.44,117.82h.8v2.7h.37v.73h-.37v.86h-.78v-.86h-1.83v-.73Zm0,2.7v-1.41l-1,1.41Z"/>
          <path d="M141.75,117.93h2v.74h-1.37l-.17.75.14,0h.13a1.27,1.27,0,0,1,.95.39,1.37,1.37,0,0,1,.37,1,1.42,1.42,0,0,1-1.43,1.45,1.38,1.38,0,0,1-.91-.31,1.41,1.41,0,0,1-.51-.83h.84a.75.75,0,0,0,.25.3.71.71,0,0,0,.35.1.62.62,0,0,0,.45-.19.69.69,0,0,0,.18-.49.66.66,0,0,0-.17-.48.55.55,0,0,0-.41-.19.59.59,0,0,0-.26.07.76.76,0,0,0-.25.2l-.65-.15Z"/>
          <path d="M145.72,117.82l.68.34-.73,1.42a1.24,1.24,0,0,1,.91.38,1.35,1.35,0,0,1,.37,1,1.28,1.28,0,0,1-.38.93,1.3,1.3,0,0,1-.93.38,1.33,1.33,0,0,1-1.32-1.3,1.32,1.32,0,0,1,.06-.39,4.13,4.13,0,0,1,.27-.6Zm-.09,2.52a.49.49,0,0,0-.38.16.55.55,0,0,0-.15.4.6.6,0,0,0,.16.41.5.5,0,0,0,.37.16.51.51,0,0,0,.38-.16.54.54,0,0,0,.16-.41.52.52,0,0,0-.16-.4A.49.49,0,0,0,145.63,120.34Z"/>
          <path d="M147.65,117.93h2.74v.42l-1.89,3.87-.67-.33,1.57-3.21h-1.75Z"/>
          <path d="M153.05,119.84a1.31,1.31,0,0,1,.41,1.76,1.18,1.18,0,0,1-.48.46,1.67,1.67,0,0,1-.78.16,1.83,1.83,0,0,1-.81-.15,1.19,1.19,0,0,1-.47-.45,1.37,1.37,0,0,1-.18-.69,1.33,1.33,0,0,1,.14-.6,1.63,1.63,0,0,1,.43-.49,1.32,1.32,0,0,1-.28-.4,1.18,1.18,0,0,1-.1-.45,1.22,1.22,0,0,1,.16-.6,1.11,1.11,0,0,1,.44-.42,1.4,1.4,0,0,1,.66-.15,1.36,1.36,0,0,1,.65.15,1.21,1.21,0,0,1,.44.43,1.28,1.28,0,0,1,.16.6.91.91,0,0,1-.09.41A1.61,1.61,0,0,1,153.05,119.84Zm-.85.43a.73.73,0,0,0-.49.17.55.55,0,0,0-.19.42.58.58,0,0,0,.18.43.73.73,0,0,0,.49.17.68.68,0,0,0,.48-.16.54.54,0,0,0,.18-.42.6.6,0,0,0-.18-.44A.71.71,0,0,0,152.2,120.27Zm0-1.68a.43.43,0,0,0-.33.13.48.48,0,0,0-.12.33.47.47,0,0,0,.13.34.48.48,0,0,0,.66,0,.46.46,0,0,0,.13-.35.41.41,0,0,0-.13-.32A.45.45,0,0,0,152.17,118.59Z"/>
          <path d="M155.39,122.22l-.67-.34.73-1.42a1.24,1.24,0,0,1-.91-.38,1.3,1.3,0,0,1-.37-1,1.28,1.28,0,0,1,.38-.93,1.3,1.3,0,0,1,.93-.38,1.27,1.27,0,0,1,.94.4,1.26,1.26,0,0,1,.37.9,1.31,1.31,0,0,1,0,.39,4.13,4.13,0,0,1-.27.6Zm.1-2.52a.47.47,0,0,0,.37-.16.58.58,0,0,0,.16-.4.6.6,0,0,0-.16-.41.5.5,0,0,0-.37-.16.49.49,0,0,0-.38.16.56.56,0,0,0-.16.41.57.57,0,0,0,.15.4A.53.53,0,0,0,155.49,119.7Z"/>
          <path d="M158.7,117.82a1.39,1.39,0,0,1,.79.23,1.44,1.44,0,0,1,.51.68,4.75,4.75,0,0,1,0,2.59,1.44,1.44,0,0,1-.5.68,1.33,1.33,0,0,1-.78.22,1.28,1.28,0,0,1-1.29-.89,3.26,3.26,0,0,1-.19-1.27,3,3,0,0,1,.36-1.67A1.26,1.26,0,0,1,158.7,117.82Zm0,.76a.52.52,0,0,0-.36.13.91.91,0,0,0-.24.44,4.24,4.24,0,0,0-.08.93,2.15,2.15,0,0,0,.19,1.09.55.55,0,0,0,.49.31.53.53,0,0,0,.46-.29,2.38,2.38,0,0,0,.2-1.16,2.51,2.51,0,0,0-.18-1.14A.53.53,0,0,0,158.72,118.58Z"/>
          <path d="M161.3,117.93h1.19v4.18h-.79v-3.43h-.86Z"/>
        </g>
        <g>
          <path d="M114.62,61.83v.84a3.91,3.91,0,0,1,1.12-.78,3.25,3.25,0,0,1,1.28-.25,3.3,3.3,0,0,1,2.53,1.12,4.05,4.05,0,0,1,1,2.89,4,4,0,0,1-1.07,2.83A3.38,3.38,0,0,1,117,69.63a3.05,3.05,0,0,1-1.22-.24,3.62,3.62,0,0,1-1.13-.76v3.58h-1.89V61.83Zm2,1.57a2,2,0,0,0-1.5.61,2.25,2.25,0,0,0-.59,1.61,2.28,2.28,0,0,0,.59,1.63,2,2,0,0,0,1.5.63,1.93,1.93,0,0,0,1.47-.64,2.29,2.29,0,0,0,.59-1.62,2.25,2.25,0,0,0-.58-1.6A1.93,1.93,0,0,0,116.63,63.4Z" fill="#4d4d4f"/>
          <path d="M129.79,66.18h-6.13a2,2,0,0,0,.71,1.29,2.2,2.2,0,0,0,1.47.48,2.56,2.56,0,0,0,1.84-.75l1.6.76a3.74,3.74,0,0,1-1.44,1.26,4.53,4.53,0,0,1-2,.41,3.94,3.94,0,0,1-2.91-1.13,3.84,3.84,0,0,1-1.12-2.83,3.93,3.93,0,0,1,1.12-2.88,3.73,3.73,0,0,1,2.81-1.15,3.9,3.9,0,0,1,2.92,1.15,4.12,4.12,0,0,1,1.12,3Zm-1.91-1.5a1.93,1.93,0,0,0-.75-1,2.13,2.13,0,0,0-1.29-.4,2.28,2.28,0,0,0-1.4.45,2.5,2.5,0,0,0-.7,1Z" fill="#4d4d4f"/>
          <path d="M130.88,61.83h1.64v1a2,2,0,0,1,.7-.86,1.67,1.67,0,0,1,1-.29,1.79,1.79,0,0,1,.78.19l-.59,1.64a1.34,1.34,0,0,0-.56-.16.87.87,0,0,0-.74.54,5.05,5.05,0,0,0-.3,2.14v3.44h-1.89Z" fill="#4d4d4f"/>
          <path d="M139.89,61.83h1.91v.87a3.41,3.41,0,0,1,1.08-.8,3.16,3.16,0,0,1,1.31-.26,2.35,2.35,0,0,1,1.28.35,2.53,2.53,0,0,1,.93,1,3.05,3.05,0,0,1,1.11-1,3,3,0,0,1,1.45-.35,2.66,2.66,0,0,1,1.42.37,2.18,2.18,0,0,1,.89,1,5.46,5.46,0,0,1,.26,2v4.46h-1.92V65.58a3.21,3.21,0,0,0-.32-1.75,1.08,1.08,0,0,0-1-.46,1.44,1.44,0,0,0-.88.28,1.55,1.55,0,0,0-.57.77,4.65,4.65,0,0,0-.19,1.58v3.43h-1.92V65.75a5.24,5.24,0,0,0-.15-1.48,1.31,1.31,0,0,0-.46-.68,1.16,1.16,0,0,0-.72-.22,1.43,1.43,0,0,0-.87.28,1.69,1.69,0,0,0-.58.79,4.9,4.9,0,0,0-.19,1.61v3.38h-1.91Z" fill="#4d4d4f"/>
          <path d="M156.92,61.64a4.09,4.09,0,0,1,2,.53,3.92,3.92,0,0,1,1.48,1.46,4,4,0,0,1,.53,2,4.09,4.09,0,0,1-.53,2A3.93,3.93,0,0,1,159,69.1a4,4,0,0,1-2,.53,3.78,3.78,0,0,1-2.79-1.17,4,4,0,0,1,.15-5.79A3.8,3.8,0,0,1,156.92,61.64Zm0,1.79a2,2,0,0,0-1.48.62,2.21,2.21,0,0,0-.59,1.58,2.29,2.29,0,0,0,.58,1.61,2,2,0,0,0,1.48.61,1.94,1.94,0,0,0,1.49-.62,2.2,2.2,0,0,0,.6-1.6,2.25,2.25,0,0,0-.58-1.59A2,2,0,0,0,157,63.43Z" fill="#4d4d4f"/>
          <path d="M162.51,61.83h1.9v.78a4.79,4.79,0,0,1,1.18-.76,2.88,2.88,0,0,1,1.08-.21,2.6,2.6,0,0,1,1.91.78,2.69,2.69,0,0,1,.67,2v5h-1.89V66.1a8.47,8.47,0,0,0-.12-1.8,1.17,1.17,0,0,0-.43-.68,1.15,1.15,0,0,0-.74-.24,1.41,1.41,0,0,0-1,.39,2,2,0,0,0-.57,1.07,8,8,0,0,0-.09,1.54v3.05h-1.9Z" fill="#4d4d4f"/>
          <path d="M171.32,59h1.91v2.8h1.13v1.64h-1.13v6h-1.91v-6h-1V61.83h1Z" fill="#4d4d4f"/>
          <path d="M175.39,58.9h1.89v3.7a4.41,4.41,0,0,1,1.12-.72,2.93,2.93,0,0,1,1.15-.24,2.6,2.6,0,0,1,1.91.78,2.73,2.73,0,0,1,.66,2v5h-1.88V66.1a8.62,8.62,0,0,0-.12-1.79,1.33,1.33,0,0,0-.43-.7,1.27,1.27,0,0,0-.76-.23,1.41,1.41,0,0,0-1,.39,2,2,0,0,0-.58,1,9.51,9.51,0,0,0-.08,1.57v3.05h-1.89Z" fill="#4d4d4f"/>
        </g>
        <path d="M92.88,42.35h9.24V73.69h4.33v8.57h-4.33v10H93.05v-10H71.8V73.69Zm.17,31.34V57.38L81.93,73.69Z" fill="#4d4d4f"/>
        <path d="M76.82,44.07,74.7,46.13a4.09,4.09,0,0,0-2.87-1.49,2,2,0,0,0-1.35.44,1.32,1.32,0,0,0-.52,1,1.39,1.39,0,0,0,.46,1,5.44,5.44,0,0,0,1.82,1.06,15.22,15.22,0,0,1,3.34,1.72A5,5,0,0,1,77,51.57a5.11,5.11,0,0,1,.48,2.24,5,5,0,0,1-.52,2.29,4.46,4.46,0,0,1-1.32,1.67,5.82,5.82,0,0,1-2.34.93v2.93H71.2V58.77a6.6,6.6,0,0,1-2.45-.72,10.68,10.68,0,0,1-2.57-2l2.09-2.13A5.58,5.58,0,0,0,72.15,56a2.28,2.28,0,0,0,1.64-.66,2.09,2.09,0,0,0,.69-1.56A2.13,2.13,0,0,0,74,52.45a4.78,4.78,0,0,0-1.73-1.16,21.54,21.54,0,0,1-3.54-1.92,4.74,4.74,0,0,1-1.37-1.59,4,4,0,0,1-.46-1.88,3.81,3.81,0,0,1,1.21-2.84,4.48,4.48,0,0,1,3-1.26V40.7h2.06v1.24a6.5,6.5,0,0,1,1.8.68A8.81,8.81,0,0,1,76.82,44.07Z" fill="#4d4d4f"/>
        <g>
          <path d="M113.8,75.7a.84.84,0,0,1,.41.11.72.72,0,0,1,.3.3.8.8,0,0,1,.11.4.84.84,0,0,1-.11.41.76.76,0,0,1-.29.3.87.87,0,0,1-.42.1.73.73,0,0,1-.56-.23.78.78,0,0,1-.24-.58.77.77,0,0,1,.27-.6A.76.76,0,0,1,113.8,75.7Zm0,.37a.41.41,0,0,0-.3.12.45.45,0,0,0-.12.32.45.45,0,0,0,.12.33.44.44,0,0,0,.6,0,.46.46,0,0,0,.12-.33.44.44,0,0,0-.12-.32A.41.41,0,0,0,113.81,76.07Z" fill="#4d4d4f"/>
          <path d="M114.85,75.74h.33v.2a.37.37,0,0,1,.14-.18.36.36,0,0,1,.2-.06.42.42,0,0,1,.15,0l-.12.34a.19.19,0,0,0-.11,0,.18.18,0,0,0-.15.11,1.05,1.05,0,0,0-.06.43v.7h-.38Z" fill="#4d4d4f"/>
          <path d="M116.68,75.74h.39v.74a1.09,1.09,0,0,0,0,.31.23.23,0,0,0,.26.17.29.29,0,0,0,.16,0,.3.3,0,0,0,.1-.14.91.91,0,0,0,0-.28v-.76H118v.66A1.68,1.68,0,0,1,118,77a.63.63,0,0,1-.23.28.75.75,0,0,1-.39.09.66.66,0,0,1-.41-.11.62.62,0,0,1-.22-.32,2,2,0,0,1,0-.51Z" fill="#4d4d4f"/>
          <path d="M118.8,75.74v.17a.87.87,0,0,1,.23-.16.75.75,0,0,1,.26,0,.68.68,0,0,1,.51.23.8.8,0,0,1,.22.59.81.81,0,0,1-.22.57.68.68,0,0,1-.52.23.69.69,0,0,1-.25,0,1,1,0,0,1-.23-.16v.73h-.38V75.74Zm.41.32a.41.41,0,0,0-.3.12.48.48,0,0,0-.12.33.45.45,0,0,0,.12.33.41.41,0,0,0,.6,0,.48.48,0,0,0,.12-.33.44.44,0,0,0-.12-.32A.38.38,0,0,0,119.21,76.06Z" fill="#4d4d4f"/>
          <path d="M121.19,75.17h.39v.57h.23v.34h-.23v1.2h-.39v-1.2H121v-.34h.19Z" fill="#4d4d4f"/>
          <path d="M122.74,75.7a.81.81,0,0,1,.41.11.72.72,0,0,1,.3.3.71.71,0,0,1,.11.4.74.74,0,0,1-.11.41.76.76,0,0,1-.29.3.87.87,0,0,1-.42.1.73.73,0,0,1-.56-.23.78.78,0,0,1-.24-.58.77.77,0,0,1,.27-.6A.76.76,0,0,1,122.74,75.7Zm0,.37a.41.41,0,0,0-.3.12.45.45,0,0,0-.12.32.45.45,0,0,0,.12.33.44.44,0,0,0,.6,0,.46.46,0,0,0,.12-.33.44.44,0,0,0-.12-.32A.41.41,0,0,0,122.75,76.07Z" fill="#4d4d4f"/>
          <path d="M126,75.44l-.28.27a.53.53,0,0,0-.37-.2.24.24,0,0,0-.17.06.16.16,0,0,0-.07.13.18.18,0,0,0,.06.13.79.79,0,0,0,.24.14,2,2,0,0,1,.43.22.62.62,0,0,1,.17.22.57.57,0,0,1,.07.29.78.78,0,0,1-.07.3.51.51,0,0,1-.17.21.85.85,0,0,1-.3.12v.38h-.27v-.37a1,1,0,0,1-.32-.09,1.4,1.4,0,0,1-.33-.27l.27-.27a.72.72,0,0,0,.5.27.33.33,0,0,0,.22-.08.32.32,0,0,0,.08-.21.26.26,0,0,0,0-.17.65.65,0,0,0-.23-.15,2,2,0,0,1-.45-.25.57.57,0,0,1-.18-.2.53.53,0,0,1-.06-.24.47.47,0,0,1,.16-.37.53.53,0,0,1,.39-.16V75h.27v.17a1,1,0,0,1,.23.08A1.5,1.5,0,0,1,126,75.44Z" fill="#4d4d4f"/>
          <path d="M126.67,75.71h-.38a.62.62,0,0,1,.64-.56.59.59,0,0,1,.43.16.51.51,0,0,1,.18.39.46.46,0,0,1-.08.25.52.52,0,0,1-.22.19.52.52,0,0,1,.3.19.57.57,0,0,1,.1.34.61.61,0,0,1-.2.47.76.76,0,0,1-.53.2.64.64,0,0,1-.49-.19.7.7,0,0,1-.21-.5h.39a.39.39,0,0,0,.11.24.29.29,0,0,0,.22.08.32.32,0,0,0,.23-.09.29.29,0,0,0,.09-.21.32.32,0,0,0-.12-.25.67.67,0,0,0-.36-.1V76a.57.57,0,0,0,.22,0,.31.31,0,0,0,.11-.09.28.28,0,0,0,0-.13.2.2,0,0,0-.06-.14.28.28,0,0,0-.16,0,.2.2,0,0,0-.15,0A.26.26,0,0,0,126.67,75.71Z" fill="#4d4d4f"/>
          <path d="M128.55,75.15a.69.69,0,0,1,.4.11.76.76,0,0,1,.25.34,1.81,1.81,0,0,1,.09.64,1.88,1.88,0,0,1-.09.65.69.69,0,0,1-.25.34.67.67,0,0,1-.39.11.69.69,0,0,1-.39-.11.76.76,0,0,1-.25-.33,1.78,1.78,0,0,1-.09-.64,1.49,1.49,0,0,1,.17-.83A.63.63,0,0,1,128.55,75.15Zm0,.37a.24.24,0,0,0-.18.07.45.45,0,0,0-.12.22,2.52,2.52,0,0,0,0,.46,1,1,0,0,0,.1.55.27.27,0,0,0,.24.15.27.27,0,0,0,.23-.14,1.2,1.2,0,0,0,.1-.58,1.23,1.23,0,0,0-.09-.57A.28.28,0,0,0,128.56,75.52Z" fill="#4d4d4f"/>
          <path d="M130.76,75.74v.17a.87.87,0,0,1,.23-.16.75.75,0,0,1,.26,0,.68.68,0,0,1,.51.23.84.84,0,0,1,.21.59.8.8,0,0,1-.21.57.68.68,0,0,1-.52.23.69.69,0,0,1-.25,0,.8.8,0,0,1-.23-.16v.73h-.38V75.74Zm.41.32a.41.41,0,0,0-.3.12.48.48,0,0,0-.12.33.45.45,0,0,0,.12.33.41.41,0,0,0,.6,0,.48.48,0,0,0,.12-.33.44.44,0,0,0-.12-.32A.38.38,0,0,0,131.17,76.06Z" fill="#4d4d4f"/>
          <path d="M133.84,76.62H132.6a.44.44,0,0,0,.14.27.49.49,0,0,0,.3.09.51.51,0,0,0,.37-.15l.33.16a.76.76,0,0,1-.29.25.88.88,0,0,1-.41.08.79.79,0,0,1-.82-.8.8.8,0,0,1,.23-.58.75.75,0,0,1,.57-.24.78.78,0,0,1,.59.24.8.8,0,0,1,.23.61Zm-.39-.3a.32.32,0,0,0-.15-.21.47.47,0,0,0-.54,0,.57.57,0,0,0-.15.2Z" fill="#4d4d4f"/>
          <path d="M134.06,75.74h.33v.2a.45.45,0,0,1,.15-.18.33.33,0,0,1,.19-.06.47.47,0,0,1,.16,0l-.12.34a.21.21,0,0,0-.11,0,.18.18,0,0,0-.15.11,1.05,1.05,0,0,0-.06.43v.7h-.39Z" fill="#4d4d4f"/>
          <path d="M135.89,75.74h.39v.18a.57.57,0,0,1,.22-.16.58.58,0,0,1,.26-.06.53.53,0,0,1,.26.07.55.55,0,0,1,.19.21.66.66,0,0,1,.23-.21.73.73,0,0,1,.29-.07.55.55,0,0,1,.29.08.49.49,0,0,1,.18.2,1,1,0,0,1,.05.4v.9h-.39V76.5a.7.7,0,0,0-.06-.35.21.21,0,0,0-.2-.1.27.27,0,0,0-.17.06.28.28,0,0,0-.12.16.82.82,0,0,0,0,.32v.69h-.39v-.74a1.05,1.05,0,0,0,0-.3.28.28,0,0,0-.09-.14.25.25,0,0,0-.15,0,.32.32,0,0,0-.18.06.31.31,0,0,0-.11.16.92.92,0,0,0,0,.33v.68h-.39Z" fill="#4d4d4f"/>
          <path d="M139.35,75.7a.87.87,0,0,1,.41.11.79.79,0,0,1,.3.3.8.8,0,0,1,.11.4.84.84,0,0,1-.11.41.79.79,0,0,1-.3.3.8.8,0,0,1-.41.1.77.77,0,0,1-.57-.23.82.82,0,0,1-.23-.58.8.8,0,0,1,.8-.81Zm0,.37a.41.41,0,0,0-.3.12.45.45,0,0,0-.12.32.45.45,0,0,0,.12.33.44.44,0,0,0,.6,0,.46.46,0,0,0,.12-.33.43.43,0,0,0-.11-.32A.41.41,0,0,0,139.35,76.07Z" fill="#4d4d4f"/>
          <path d="M140.48,75.74h.39v.16a.83.83,0,0,1,.24-.15.54.54,0,0,1,.22,0,.53.53,0,0,1,.38.16.56.56,0,0,1,.14.4v1h-.38v-.67a1.41,1.41,0,0,0,0-.37.26.26,0,0,0-.09-.14.24.24,0,0,0-.15,0,.31.31,0,0,0-.2.07.66.66,0,0,0-.12.22,2.29,2.29,0,0,0,0,.32v.61h-.39Z" fill="#4d4d4f"/>
          <path d="M142.27,75.17h.39v.57h.23v.34h-.23v1.2h-.39v-1.2h-.2v-.34h.2Z" fill="#4d4d4f"/>
          <path d="M143.09,75.15h.39v.75a.65.65,0,0,1,.23-.15.59.59,0,0,1,.23,0,.53.53,0,0,1,.39.16.55.55,0,0,1,.13.4v1h-.38v-.67a1.37,1.37,0,0,0,0-.36.22.22,0,0,0-.08-.15.25.25,0,0,0-.16,0,.31.31,0,0,0-.2.07.51.51,0,0,0-.11.22,1.12,1.12,0,0,0,0,.32v.61h-.39Z" fill="#4d4d4f"/>
          <path d="M145,76.89l.28.14-.35.6-.2-.09Z" fill="#4d4d4f"/>
          <path d="M147.6,75.15H148v2.13h-.39v-.16a.8.8,0,0,1-.23.16.69.69,0,0,1-.25,0,.64.64,0,0,1-.51-.23.77.77,0,0,1-.22-.57.84.84,0,0,1,.21-.59.68.68,0,0,1,.51-.23.71.71,0,0,1,.26,0,.87.87,0,0,1,.23.16Zm-.41.91a.38.38,0,0,0-.3.13.43.43,0,0,0-.11.32.48.48,0,0,0,.12.33.37.37,0,0,0,.29.13.4.4,0,0,0,.31-.13.45.45,0,0,0,.12-.33.48.48,0,0,0-.12-.33A.43.43,0,0,0,147.19,76.06Z" fill="#4d4d4f"/>
          <path d="M149.92,76.62h-1.24a.44.44,0,0,0,.14.27.49.49,0,0,0,.3.09.51.51,0,0,0,.37-.15l.33.16a.76.76,0,0,1-.29.25.88.88,0,0,1-.41.08.79.79,0,0,1-.82-.8.8.8,0,0,1,.23-.58.75.75,0,0,1,.57-.24.78.78,0,0,1,.59.24.8.8,0,0,1,.23.61Zm-.39-.3a.32.32,0,0,0-.15-.21.47.47,0,0,0-.54,0,.47.47,0,0,0-.14.2Z" fill="#4d4d4f"/>
          <path d="M150.62,75.74v.17a.73.73,0,0,1,.23-.16.71.71,0,0,1,.26,0,.68.68,0,0,1,.51.23.84.84,0,0,1,.21.59.77.77,0,0,1-.22.57.66.66,0,0,1-.52.23.64.64,0,0,1-.24,0,.69.69,0,0,1-.23-.16v.73h-.39V75.74Zm.41.32a.41.41,0,0,0-.31.12.48.48,0,0,0-.12.33.45.45,0,0,0,.12.33A.39.39,0,0,0,151,77a.37.37,0,0,0,.29-.13.44.44,0,0,0,.13-.33.44.44,0,0,0-.12-.32A.38.38,0,0,0,151,76.06Z" fill="#4d4d4f"/>
          <path d="M153.7,76.62h-1.25a.46.46,0,0,0,.15.27.44.44,0,0,0,.29.09.54.54,0,0,0,.38-.15l.32.16a.7.7,0,0,1-.29.25.84.84,0,0,1-.4.08.77.77,0,0,1-.59-.23.74.74,0,0,1-.23-.57.76.76,0,0,1,.23-.58.75.75,0,0,1,.57-.24.78.78,0,0,1,.59.24.84.84,0,0,1,.23.61Zm-.39-.3a.41.41,0,0,0-.15-.21.47.47,0,0,0-.26-.08.48.48,0,0,0-.29.09.47.47,0,0,0-.14.2Z" fill="#4d4d4f"/>
          <path d="M154,75.74h.39v.16a.69.69,0,0,1,.23-.15.63.63,0,0,1,.22,0,.53.53,0,0,1,.39.16.56.56,0,0,1,.14.4v1H155v-.67a1.59,1.59,0,0,0,0-.37.34.34,0,0,0-.09-.14.24.24,0,0,0-.15,0,.29.29,0,0,0-.2.07.43.43,0,0,0-.12.22,2.29,2.29,0,0,0,0,.32v.61H154Z" fill="#4d4d4f"/>
          <path d="M156.89,75.15h.39v2.13h-.39v-.16a.8.8,0,0,1-.23.16.64.64,0,0,1-.24,0,.66.66,0,0,1-.52-.23.77.77,0,0,1-.22-.57.84.84,0,0,1,.21-.59.68.68,0,0,1,.51-.23.71.71,0,0,1,.26,0,.73.73,0,0,1,.23.16Zm-.41.91a.38.38,0,0,0-.3.13.52.52,0,0,0,0,.65.37.37,0,0,0,.29.13.39.39,0,0,0,.31-.13.45.45,0,0,0,.12-.33.48.48,0,0,0-.12-.33A.41.41,0,0,0,156.48,76.06Z" fill="#4d4d4f"/>
          <path d="M157.82,75.11a.22.22,0,0,1,.17.07.24.24,0,0,1,0,.36.24.24,0,0,1-.17.07.21.21,0,0,1-.17-.08.25.25,0,0,1-.08-.18.28.28,0,0,1,.07-.17A.24.24,0,0,1,157.82,75.11Zm-.19.63H158v1.54h-.38Z" fill="#4d4d4f"/>
          <path d="M158.36,75.74h.39v.16a.83.83,0,0,1,.24-.15.54.54,0,0,1,.22,0,.57.57,0,0,1,.39.16.55.55,0,0,1,.13.4v1h-.38v-.67a1.41,1.41,0,0,0,0-.37.25.25,0,0,0-.08-.14.24.24,0,0,0-.15,0,.31.31,0,0,0-.21.07.51.51,0,0,0-.11.22,1.81,1.81,0,0,0,0,.32v.61h-.39Z" fill="#4d4d4f"/>
          <path d="M161.25,75.74h.38v1.32a.86.86,0,0,1-.16.58.8.8,0,0,1-.63.25,1,1,0,0,1-.38-.06.68.68,0,0,1-.26-.16.63.63,0,0,1-.16-.27h.42a.56.56,0,0,0,.15.1.66.66,0,0,0,.21,0,.55.55,0,0,0,.25,0,.28.28,0,0,0,.14-.12.76.76,0,0,0,0-.27.62.62,0,0,1-.22.15.66.66,0,0,1-.25,0,.71.71,0,0,1-.53-.22.8.8,0,0,1-.21-.57.77.77,0,0,1,.23-.59.68.68,0,0,1,.49-.2.74.74,0,0,1,.25,0,.84.84,0,0,1,.24.16Zm-.41.32a.38.38,0,0,0-.3.13.41.41,0,0,0-.12.31.43.43,0,0,0,.12.31.45.45,0,0,0,.31.12.41.41,0,0,0,.3-.12.41.41,0,0,0,.12-.31.44.44,0,0,0-.12-.32A.41.41,0,0,0,160.84,76.06Z" fill="#4d4d4f"/>
          <path d="M163.56,75.7a.87.87,0,0,1,.41.11.72.72,0,0,1,.3.3.8.8,0,0,1,.11.4.84.84,0,0,1-.11.41.72.72,0,0,1-.3.3.8.8,0,0,1-.41.1.77.77,0,0,1-.57-.23.82.82,0,0,1-.23-.58.8.8,0,0,1,.8-.81Zm0,.37a.41.41,0,0,0-.31.12.45.45,0,0,0-.12.32.45.45,0,0,0,.12.33.41.41,0,0,0,.3.12.43.43,0,0,0,.31-.12.46.46,0,0,0,.12-.33.44.44,0,0,0-.12-.32A.41.41,0,0,0,163.57,76.07Z" fill="#4d4d4f"/>
          <path d="M164.69,75.74h.39v.16a.83.83,0,0,1,.24-.15.54.54,0,0,1,.22,0,.57.57,0,0,1,.39.16.55.55,0,0,1,.13.4v1h-.38v-.67a1.41,1.41,0,0,0,0-.37.25.25,0,0,0-.08-.14.24.24,0,0,0-.15,0,.31.31,0,0,0-.21.07.51.51,0,0,0-.11.22,1.16,1.16,0,0,0,0,.32v.61h-.39Z" fill="#4d4d4f"/>
          <path d="M167.4,75.11a.22.22,0,0,1,.17.07.24.24,0,0,1,0,.36.24.24,0,0,1-.17.07.21.21,0,0,1-.17-.08.25.25,0,0,1-.08-.18.28.28,0,0,1,.07-.17A.24.24,0,0,1,167.4,75.11Zm-.19.63h.38v1.54h-.38Z" fill="#4d4d4f"/>
          <path d="M167.94,75.74h.39v.16a.83.83,0,0,1,.24-.15.54.54,0,0,1,.22,0,.57.57,0,0,1,.39.16.55.55,0,0,1,.13.4v1h-.38v-.67a1.41,1.41,0,0,0,0-.37.25.25,0,0,0-.08-.14.24.24,0,0,0-.15,0,.31.31,0,0,0-.21.07.51.51,0,0,0-.11.22,1.16,1.16,0,0,0,0,.32v.61h-.39Z" fill="#4d4d4f"/>
          <path d="M170.63,76l-.24.24a.41.41,0,0,0-.27-.15.17.17,0,0,0-.1,0,.09.09,0,0,0,0,.07.07.07,0,0,0,0,.06l.11.07.15.07a.77.77,0,0,1,.3.22.44.44,0,0,1,.09.27.47.47,0,0,1-.15.35.59.59,0,0,1-.41.13.65.65,0,0,1-.54-.26l.24-.26a.65.65,0,0,0,.16.13.41.41,0,0,0,.16,0,.2.2,0,0,0,.13,0,.09.09,0,0,0,0-.08c0-.06,0-.12-.17-.18l-.13-.06c-.25-.13-.37-.29-.37-.48a.43.43,0,0,1,.14-.31.62.62,0,0,1,.87.13Z" fill="#4d4d4f"/>
          <path d="M171,75.74h.39v.74a1.09,1.09,0,0,0,0,.31.26.26,0,0,0,.1.13.27.27,0,0,0,.16,0,.25.25,0,0,0,.16,0,.24.24,0,0,0,.1-.14.81.81,0,0,0,0-.28v-.76h.39v.66a1.61,1.61,0,0,1-.07.55.63.63,0,0,1-.23.28.74.74,0,0,1-.38.09.64.64,0,0,1-.41-.11.57.57,0,0,1-.22-.32,1.83,1.83,0,0,1,0-.51Z" fill="#4d4d4f"/>
          <path d="M172.61,75.74H173v.2a.37.37,0,0,1,.14-.18.33.33,0,0,1,.19-.06.47.47,0,0,1,.16,0l-.12.34a.19.19,0,0,0-.11,0,.18.18,0,0,0-.15.11,1.05,1.05,0,0,0-.06.43v.7h-.39Z" fill="#4d4d4f"/>
          <path d="M174.77,75.74h.39v1.54h-.39v-.16a.69.69,0,0,1-.23.16.64.64,0,0,1-.24,0,.66.66,0,0,1-.52-.23.77.77,0,0,1-.22-.57.84.84,0,0,1,.21-.59.68.68,0,0,1,.52-.23.7.7,0,0,1,.25,0,.73.73,0,0,1,.23.16Zm-.41.32a.35.35,0,0,0-.29.13.44.44,0,0,0-.12.32.48.48,0,0,0,.12.33.41.41,0,0,0,.6,0,.45.45,0,0,0,.12-.33.48.48,0,0,0-.12-.33A.41.41,0,0,0,174.36,76.06Z" fill="#4d4d4f"/>
          <path d="M175.55,75.74h.39v.16a.69.69,0,0,1,.23-.15.63.63,0,0,1,.22,0,.53.53,0,0,1,.39.16.56.56,0,0,1,.14.4v1h-.39v-.67a1.59,1.59,0,0,0,0-.37.34.34,0,0,0-.09-.14.24.24,0,0,0-.15,0,.29.29,0,0,0-.2.07.43.43,0,0,0-.12.22,2.29,2.29,0,0,0,0,.32v.61h-.39Z" fill="#4d4d4f"/>
          <path d="M178.8,76.05l-.32.18a.51.51,0,0,0-.18-.13.46.46,0,0,0-.21,0,.52.52,0,0,0-.35.13.44.44,0,0,0-.13.33.39.39,0,0,0,.13.32.42.42,0,0,0,.33.13.5.5,0,0,0,.41-.18l.3.21a.81.81,0,0,1-.7.32.82.82,0,0,1-.63-.24.76.76,0,0,1-.23-.56.72.72,0,0,1,.11-.41.75.75,0,0,1,.31-.3.94.94,0,0,1,.45-.11.91.91,0,0,1,.41.09A.83.83,0,0,1,178.8,76.05Z" fill="#4d4d4f"/>
          <path d="M180.69,76.62h-1.24a.46.46,0,0,0,.15.27.44.44,0,0,0,.29.09.54.54,0,0,0,.38-.15l.32.16a.76.76,0,0,1-.29.25.84.84,0,0,1-.4.08.77.77,0,0,1-.59-.23.74.74,0,0,1-.23-.57.79.79,0,0,1,.8-.82.78.78,0,0,1,.59.24.84.84,0,0,1,.23.61Zm-.38-.3a.41.41,0,0,0-.15-.21.5.5,0,0,0-.27-.08.42.42,0,0,0-.42.29Z" fill="#4d4d4f"/>
          <path d="M181.22,76.88a.21.21,0,1,1-.16.06A.25.25,0,0,1,181.22,76.88Z" fill="#4d4d4f"/>
        </g>
        <g>
          <path d="M15.93,99.34h1.55v.53H17v2.28h-.54V99.87h-.5Z"/>
          <path d="M19.87,101.26H18.2a.58.58,0,0,0,.19.36.66.66,0,0,0,.4.13.69.69,0,0,0,.51-.21l.44.21a1.07,1.07,0,0,1-.4.34,1.13,1.13,0,0,1-.54.12,1.11,1.11,0,0,1-.8-.31,1.06,1.06,0,0,1-.31-.78,1.08,1.08,0,0,1,.31-.79,1,1,0,0,1,.77-.31,1.07,1.07,0,0,1,.8.31,1.17,1.17,0,0,1,.31.83Zm-.52-.41a.51.51,0,0,0-.2-.28.61.61,0,0,0-.36-.11.64.64,0,0,0-.38.12.67.67,0,0,0-.19.27Z"/>
          <path d="M20.17,100.07h.45v.26a.55.55,0,0,1,.19-.23.5.5,0,0,1,.27-.08.63.63,0,0,1,.21,0l-.16.45a.37.37,0,0,0-.15,0,.25.25,0,0,0-.21.14,1.51,1.51,0,0,0-.08.59v.94h-.52Z"/>
          <path d="M21.54,100.07h.52v.24a.89.89,0,0,1,.3-.22.86.86,0,0,1,.36-.07.7.7,0,0,1,.35.09.76.76,0,0,1,.25.28,1,1,0,0,1,.31-.28A.86.86,0,0,1,24,100a.71.71,0,0,1,.39.1.62.62,0,0,1,.24.27,1.39,1.39,0,0,1,.08.54v1.22H24.2V101.1a.87.87,0,0,0-.09-.48.27.27,0,0,0-.26-.13.41.41,0,0,0-.24.08.49.49,0,0,0-.16.21,1.43,1.43,0,0,0-.05.43v.94h-.52v-1a1.25,1.25,0,0,0-.05-.4.31.31,0,0,0-.32-.25.38.38,0,0,0-.23.08.37.37,0,0,0-.16.22,1.18,1.18,0,0,0-.06.44v.92h-.52Z"/>
          <path d="M26.5,100.36l-.33.33a.56.56,0,0,0-.35-.2.2.2,0,0,0-.14,0,.11.11,0,0,0-.05.09.13.13,0,0,0,0,.08.61.61,0,0,0,.16.09l.19.1a1.11,1.11,0,0,1,.41.3.61.61,0,0,1,.12.37.59.59,0,0,1-.21.46.79.79,0,0,1-.54.19.86.86,0,0,1-.73-.36l.32-.35a.62.62,0,0,0,.22.17.4.4,0,0,0,.22.07.28.28,0,0,0,.16,0,.14.14,0,0,0,.06-.12c0-.08-.07-.15-.22-.23l-.18-.09c-.34-.17-.5-.38-.5-.63a.56.56,0,0,1,.19-.43.7.7,0,0,1,.48-.17.79.79,0,0,1,.38.09A.93.93,0,0,1,26.5,100.36Z"/>
          <path d="M29.58,100.07h.52v2.08h-.52v-.22a1.06,1.06,0,0,1-.31.21.88.88,0,0,1-.33.07.94.94,0,0,1-.7-.32,1.07,1.07,0,0,1-.29-.77,1.09,1.09,0,0,1,.28-.79.89.89,0,0,1,.69-.31.81.81,0,0,1,.35.07,1.21,1.21,0,0,1,.31.21Zm-.55.43a.53.53,0,0,0-.4.17.62.62,0,0,0-.17.44.6.6,0,0,0,.17.44.52.52,0,0,0,.4.18.57.57,0,0,0,.41-.17.69.69,0,0,0,.16-.45.64.64,0,0,0-.16-.44A.57.57,0,0,0,29,100.5Z"/>
          <path d="M30.63,100.07h.52v.22a1.09,1.09,0,0,1,.32-.21.72.72,0,0,1,.29-.06.74.74,0,0,1,.53.21.78.78,0,0,1,.18.55v1.37H32v-.91a2.48,2.48,0,0,0,0-.49.31.31,0,0,0-.32-.25.36.36,0,0,0-.27.1.54.54,0,0,0-.16.3,2,2,0,0,0,0,.42v.83h-.52Z"/>
          <path d="M34.51,99.27H35v2.88h-.52v-.22a1,1,0,0,1-.31.21.88.88,0,0,1-.33.07.94.94,0,0,1-.7-.32,1.07,1.07,0,0,1-.29-.77,1.09,1.09,0,0,1,.28-.79.89.89,0,0,1,.69-.31.81.81,0,0,1,.35.07,1.21,1.21,0,0,1,.31.21ZM34,100.5a.53.53,0,0,0-.4.17.61.61,0,0,0-.16.44.6.6,0,0,0,.16.44.52.52,0,0,0,.4.18.57.57,0,0,0,.41-.17.64.64,0,0,0,.16-.45.6.6,0,0,0-.16-.44A.57.57,0,0,0,34,100.5Z"/>
          <path d="M38.69,100.49l-.44.24a.94.94,0,0,0-.24-.18.78.78,0,0,0-.28,0,.64.64,0,0,0-.47.18.58.58,0,0,0-.18.45.56.56,0,0,0,.17.43.72.72,0,0,0,1-.07l.41.28a1.11,1.11,0,0,1-.94.44,1.12,1.12,0,0,1-.86-.33,1.06,1.06,0,0,1-.31-.76,1.09,1.09,0,0,1,.15-.56,1.08,1.08,0,0,1,.42-.4,1.34,1.34,0,0,1,.61-.14,1.23,1.23,0,0,1,.55.12A1.07,1.07,0,0,1,38.69,100.49Z"/>
          <path d="M40.13,100a1.12,1.12,0,0,1,.56.15,1.11,1.11,0,0,1,.55.94,1.06,1.06,0,0,1-.15.55,1.1,1.1,0,0,1-.4.4,1.07,1.07,0,0,1-.56.15,1.05,1.05,0,0,1-.76-.32,1.08,1.08,0,0,1-.32-.78,1.06,1.06,0,0,1,.36-.81A1,1,0,0,1,40.13,100Zm0,.49a.53.53,0,0,0-.4.17.59.59,0,0,0-.16.43.63.63,0,0,0,.15.44.58.58,0,0,0,.82,0,.6.6,0,0,0,.16-.44.57.57,0,0,0-.16-.43A.55.55,0,0,0,40.14,100.51Z"/>
          <path d="M41.66,100.07h.52v.22a1.44,1.44,0,0,1,.32-.21.8.8,0,0,1,.3-.06.72.72,0,0,1,.52.21.78.78,0,0,1,.18.55v1.37H43v-.91a2.48,2.48,0,0,0,0-.49.44.44,0,0,0-.12-.19.35.35,0,0,0-.21-.06.39.39,0,0,0-.27.1.61.61,0,0,0-.15.3,1.74,1.74,0,0,0,0,.42v.83h-.52Z"/>
          <path d="M45.54,99.27h.53v2.88h-.53v-.22a.91.91,0,0,1-.3.21.94.94,0,0,1-.34.07.92.92,0,0,1-.69-.32,1.08,1.08,0,0,1-.3-.77,1.1,1.1,0,0,1,.29-.79.89.89,0,0,1,.69-.31.84.84,0,0,1,.35.07,1,1,0,0,1,.3.21ZM45,100.5a.55.55,0,0,0-.41.17.66.66,0,0,0-.16.44.6.6,0,0,0,.17.44.52.52,0,0,0,.4.18.57.57,0,0,0,.41-.17.69.69,0,0,0,.16-.45.64.64,0,0,0-.16-.44A.57.57,0,0,0,45,100.5Z"/>
          <path d="M46.8,99.22a.29.29,0,0,1,.23.1.3.3,0,0,1,.1.24.34.34,0,0,1-.33.33.33.33,0,0,1-.24-.1.35.35,0,0,1-.1-.24.37.37,0,0,1,.1-.24A.36.36,0,0,1,46.8,99.22Zm-.26.85h.52v2.08h-.52Z"/>
          <path d="M47.59,99.31h.53v.76h.31v.45h-.31v1.63h-.53v-1.63h-.26v-.45h.26Z"/>
          <path d="M48.91,99.22a.29.29,0,0,1,.23.1.3.3,0,0,1,.1.24.34.34,0,0,1-.33.33.33.33,0,0,1-.24-.1.34.34,0,0,1-.09-.24.31.31,0,0,1,.33-.33Zm-.26.85h.52v2.08h-.52Z"/>
          <path d="M50.62,100a1.14,1.14,0,0,1,1,.55,1.11,1.11,0,0,1,.14.54,1.15,1.15,0,0,1-.14.55,1.18,1.18,0,0,1-.4.4,1.09,1.09,0,0,1-.56.15,1,1,0,0,1-.76-.32,1.08,1.08,0,0,1-.32-.78,1.06,1.06,0,0,1,.36-.81A1,1,0,0,1,50.62,100Zm0,.49a.57.57,0,0,0-.41.17.63.63,0,0,0-.16.43.6.6,0,0,0,.16.44.55.55,0,0,0,.41.17.54.54,0,0,0,.4-.17.6.6,0,0,0,.17-.44.61.61,0,0,0-.16-.43A.57.57,0,0,0,50.63,100.51Z"/>
          <path d="M52.15,100.07h.52v.22a1.24,1.24,0,0,1,.32-.21.77.77,0,0,1,.3-.06.72.72,0,0,1,.52.21.78.78,0,0,1,.18.55v1.37h-.51v-.91a2.24,2.24,0,0,0,0-.49.36.36,0,0,0-.11-.19.37.37,0,0,0-.21-.06.38.38,0,0,0-.27.1.54.54,0,0,0-.16.3,3.08,3.08,0,0,0,0,.42v.83h-.52Z"/>
          <path d="M55.77,100.36l-.32.33a.58.58,0,0,0-.36-.2.2.2,0,0,0-.14,0,.11.11,0,0,0-.05.09.13.13,0,0,0,0,.08l.16.09.19.1a1.11,1.11,0,0,1,.41.3.61.61,0,0,1,.12.37.59.59,0,0,1-.21.46.77.77,0,0,1-.54.19.86.86,0,0,1-.73-.36l.32-.35a.72.72,0,0,0,.22.17.4.4,0,0,0,.22.07.25.25,0,0,0,.16,0,.15.15,0,0,0,.07-.12c0-.08-.08-.15-.23-.23l-.18-.09c-.33-.17-.5-.38-.5-.63a.56.56,0,0,1,.19-.43.7.7,0,0,1,.48-.17.86.86,0,0,1,.39.09A.89.89,0,0,1,55.77,100.36Z"/>
          <path d="M58.85,100.07h.52v2.08h-.52v-.22a1,1,0,0,1-.31.21.88.88,0,0,1-.33.07.94.94,0,0,1-.7-.32,1.07,1.07,0,0,1-.29-.77,1.09,1.09,0,0,1,.28-.79.89.89,0,0,1,.69-.31.81.81,0,0,1,.35.07,1.21,1.21,0,0,1,.31.21Zm-.55.43a.53.53,0,0,0-.4.17.61.61,0,0,0-.16.44.6.6,0,0,0,.16.44.52.52,0,0,0,.4.18.57.57,0,0,0,.41-.17.64.64,0,0,0,.16-.45.6.6,0,0,0-.16-.44A.57.57,0,0,0,58.3,100.5Z"/>
          <path d="M60.41,100.07v.23a1.21,1.21,0,0,1,.31-.21.84.84,0,0,1,.35-.07.89.89,0,0,1,.69.31,1.1,1.1,0,0,1,.29.79,1.08,1.08,0,0,1-.3.77.92.92,0,0,1-.69.32.94.94,0,0,1-.34-.07,1.06,1.06,0,0,1-.31-.21v1H59.9v-2.84Zm.55.43a.57.57,0,0,0-.41.17.6.6,0,0,0-.16.44.64.64,0,0,0,.16.45.57.57,0,0,0,.41.17.52.52,0,0,0,.4-.18.6.6,0,0,0,.17-.44.66.66,0,0,0-.16-.44A.55.55,0,0,0,61,100.5Z"/>
          <path d="M63,100.07v.23a1,1,0,0,1,.3-.21.84.84,0,0,1,.35-.07.9.9,0,0,1,.7.31,1.09,1.09,0,0,1,.28.79,1.12,1.12,0,0,1-.29.77.94.94,0,0,1-.7.32,1,1,0,0,1-.34-.07.91.91,0,0,1-.3-.21v1h-.52v-2.84Zm.55.43a.55.55,0,0,0-.41.17.6.6,0,0,0-.17.44.64.64,0,0,0,.17.45.55.55,0,0,0,.41.17.52.52,0,0,0,.4-.18.6.6,0,0,0,.16-.44.61.61,0,0,0-.16-.44A.54.54,0,0,0,63.55,100.5Z"/>
          <path d="M65,99.27h.53v2.88H65Z"/>
          <path d="M65.77,100.07h.53l.54,1.31.6-1.31H68l-1.3,2.84h-.54l.43-.91Z"/>
          <path d="M68.56,101.61a.32.32,0,0,1,.21.08.29.29,0,0,1,.09.22.31.31,0,0,1-.3.3.29.29,0,0,1-.22-.09.29.29,0,0,1-.09-.21.29.29,0,0,1,.09-.22A.33.33,0,0,1,68.56,101.61Z"/>
          <path d="M17.68,104.42l-.4.35a.57.57,0,0,0-.42-.29.29.29,0,0,0-.17,0,.16.16,0,0,0-.07.13.2.2,0,0,0,.05.14,4.39,4.39,0,0,0,.39.36c.2.17.33.27.37.32a1,1,0,0,1,.23.31.72.72,0,0,1,.07.33.75.75,0,0,1-.24.57.88.88,0,0,1-.62.23.94.94,0,0,1-.53-.15,1.19,1.19,0,0,1-.38-.46l.45-.27c.14.25.29.37.47.37a.36.36,0,0,0,.23-.08.25.25,0,0,0,.09-.19.32.32,0,0,0-.07-.19,2.38,2.38,0,0,0-.31-.29,2.89,2.89,0,0,1-.59-.58.72.72,0,0,1-.14-.4.64.64,0,0,1,.23-.5.75.75,0,0,1,.55-.21.93.93,0,0,1,.4.09A1.78,1.78,0,0,1,17.68,104.42Z"/>
          <path d="M20.26,106H18.59a.55.55,0,0,0,.19.35.6.6,0,0,0,.4.13.73.73,0,0,0,.51-.2l.44.2a1,1,0,0,1-.4.35,1.27,1.27,0,0,1-.54.11,1.07,1.07,0,0,1-.8-.31,1.06,1.06,0,0,1-.31-.77,1.1,1.1,0,0,1,.31-.79,1,1,0,0,1,.77-.32,1.08,1.08,0,0,1,.8.32,1.17,1.17,0,0,1,.31.83Zm-.52-.41a.47.47,0,0,0-.2-.28.54.54,0,0,0-.35-.11.65.65,0,0,0-.39.12.67.67,0,0,0-.19.27Z"/>
          <path d="M22.77,106H21.09a.56.56,0,0,0,.2.35.58.58,0,0,0,.4.13.72.72,0,0,0,.5-.2l.44.2a1.08,1.08,0,0,1-.39.35,1.35,1.35,0,0,1-.55.11,1,1,0,0,1-.79-.31,1,1,0,0,1-.31-.77,1.06,1.06,0,0,1,.31-.79,1,1,0,0,1,.77-.32,1.05,1.05,0,0,1,.79.32,1.12,1.12,0,0,1,.31.83Zm-.52-.41a.49.49,0,0,0-.21-.28.54.54,0,0,0-.35-.11.62.62,0,0,0-.38.12.59.59,0,0,0-.19.27Z"/>
          <path d="M25.82,104.77h.52v2.08h-.52v-.22a1.21,1.21,0,0,1-.31.21.88.88,0,0,1-.33.06.93.93,0,0,1-.7-.31,1.12,1.12,0,0,1-.29-.78,1.17,1.17,0,0,1,.28-.79,1,1,0,0,1,.7-.31.85.85,0,0,1,.35.08.75.75,0,0,1,.3.21Zm-.55.43a.51.51,0,0,0-.4.17.6.6,0,0,0-.16.44.61.61,0,0,0,.16.44.52.52,0,0,0,.4.17.52.52,0,0,0,.41-.17.61.61,0,0,0,.16-.45.57.57,0,0,0-.16-.43A.52.52,0,0,0,25.27,105.2Z"/>
          <path d="M28.91,105.19l-.44.24a.63.63,0,0,0-.24-.18.78.78,0,0,0-.28,0,.66.66,0,0,0-.47.17.63.63,0,0,0,0,.89.63.63,0,0,0,.46.16.66.66,0,0,0,.54-.24l.41.29a1.11,1.11,0,0,1-.94.43,1.15,1.15,0,0,1-.86-.32,1.1,1.1,0,0,1-.16-1.32,1.08,1.08,0,0,1,.42-.4,1.23,1.23,0,0,1,.61-.15,1.24,1.24,0,0,1,.55.13A1.07,1.07,0,0,1,28.91,105.19Z"/>
          <path d="M31.41,105.19l-.43.24a.74.74,0,0,0-.25-.18.78.78,0,0,0-.28,0,.68.68,0,0,0-.47.17.61.61,0,0,0-.18.45.62.62,0,0,0,.17.44.65.65,0,0,0,.46.16.68.68,0,0,0,.55-.24l.41.29a1.13,1.13,0,0,1-.95.43,1.17,1.17,0,0,1-.86-.32,1.1,1.1,0,0,1-.31-.76,1.07,1.07,0,0,1,.15-.56,1.18,1.18,0,0,1,.43-.4,1.21,1.21,0,0,1,.6-.15,1.28,1.28,0,0,1,.56.13A1,1,0,0,1,31.41,105.19Z"/>
          <path d="M32.86,104.71a1.08,1.08,0,0,1,.55.15,1,1,0,0,1,.4.4,1.06,1.06,0,0,1,.15.55,1.08,1.08,0,0,1-.15.55,1.1,1.1,0,0,1-.4.4,1.12,1.12,0,0,1-.55.14,1.07,1.07,0,0,1-.77-.32,1.1,1.1,0,0,1,0-1.58A1,1,0,0,1,32.86,104.71Zm0,.5a.54.54,0,0,0-.41.16.61.61,0,0,0-.16.44.6.6,0,0,0,.16.44.53.53,0,0,0,.4.17.55.55,0,0,0,.41-.17.69.69,0,0,0,0-.88A.52.52,0,0,0,32.87,105.21Z"/>
          <path d="M34.38,104.77h.52V105a.89.89,0,0,1,.3-.22.86.86,0,0,1,.36-.08.71.71,0,0,1,.35.1.69.69,0,0,1,.25.28.83.83,0,0,1,.31-.28.87.87,0,0,1,.39-.1.71.71,0,0,1,.39.11.62.62,0,0,1,.24.27,1.39,1.39,0,0,1,.08.54v1.22H37v-1.06a.92.92,0,0,0-.09-.48.3.3,0,0,0-.26-.12.35.35,0,0,0-.24.08.49.49,0,0,0-.16.21,1.43,1.43,0,0,0,0,.43v.94h-.53v-1a1.28,1.28,0,0,0,0-.4.33.33,0,0,0-.12-.19.32.32,0,0,0-.2-.06.37.37,0,0,0-.24.08.41.41,0,0,0-.15.21,1.22,1.22,0,0,0-.06.44v.93h-.52Z"/>
          <path d="M38.58,104.77V105a.85.85,0,0,1,.31-.21.82.82,0,0,1,.35-.08.93.93,0,0,1,.69.31,1.12,1.12,0,0,1,.28.79,1.08,1.08,0,0,1-.29.78.93.93,0,0,1-.7.31.88.88,0,0,1-.33-.06,1.41,1.41,0,0,1-.31-.21v1h-.52v-2.84Zm.55.43a.53.53,0,0,0-.41.17.57.57,0,0,0-.16.43.61.61,0,0,0,.16.45.53.53,0,0,0,.41.17.51.51,0,0,0,.4-.17.62.62,0,0,0,.17-.44.64.64,0,0,0-.16-.44A.53.53,0,0,0,39.13,105.2Z"/>
          <path d="M42.18,104.77h.52v2.08h-.52v-.22a1.37,1.37,0,0,1-.3.21,1,1,0,0,1-.34.06.93.93,0,0,1-.7-.31,1.12,1.12,0,0,1-.29-.78,1.17,1.17,0,0,1,.28-.79,1,1,0,0,1,.7-.31.85.85,0,0,1,.35.08.75.75,0,0,1,.3.21Zm-.55.43a.51.51,0,0,0-.4.17.6.6,0,0,0-.16.44.66.66,0,0,0,.16.44.52.52,0,0,0,.4.17.52.52,0,0,0,.41-.17.61.61,0,0,0,.16-.45.57.57,0,0,0-.16-.43A.52.52,0,0,0,41.63,105.2Z"/>
          <path d="M43.23,104.77h.52V105a1.44,1.44,0,0,1,.32-.21.8.8,0,0,1,.3-.06.69.69,0,0,1,.7.76v1.38h-.51v-.91a1.82,1.82,0,0,0,0-.5.33.33,0,0,0-.11-.18.31.31,0,0,0-.21-.07.4.4,0,0,0-.27.11.63.63,0,0,0-.16.29,3.32,3.32,0,0,0,0,.42v.84h-.52Z"/>
          <path d="M45.35,104.77h.53l.54,1.3.6-1.3h.53l-1.3,2.84h-.54l.43-.92Z"/>
          <path d="M48.05,103.91a.34.34,0,0,1,.34.34.35.35,0,0,1-.1.24.3.3,0,0,1-.23.1.3.3,0,0,1-.24-.1.33.33,0,0,1-.1-.24.31.31,0,0,1,.1-.24A.33.33,0,0,1,48.05,103.91Zm-.26.86h.52v2.08h-.52Z"/>
          <path d="M48.79,104.77h.52V105a1.24,1.24,0,0,1,.32-.21.74.74,0,0,1,.82.16.73.73,0,0,1,.18.54v1.38h-.52v-.91a2.6,2.6,0,0,0,0-.5.29.29,0,0,0-.12-.18.27.27,0,0,0-.2-.07.37.37,0,0,0-.27.11.55.55,0,0,0-.16.29,3.32,3.32,0,0,0,0,.42v.84h-.52Z"/>
          <path d="M52.67,104.77h.52v1.78a1.21,1.21,0,0,1-.21.78,1.08,1.08,0,0,1-.86.33,1.3,1.3,0,0,1-.51-.08,1,1,0,0,1-.36-.22A1.07,1.07,0,0,1,51,107h.58a.41.41,0,0,0,.2.13.78.78,0,0,0,.28.05.69.69,0,0,0,.34-.07.47.47,0,0,0,.18-.16,1,1,0,0,0,.05-.36.82.82,0,0,1-.63.26,1,1,0,0,1-.71-.3,1.1,1.1,0,0,1-.29-.77,1.07,1.07,0,0,1,.31-.79.94.94,0,0,1,.66-.28,1,1,0,0,1,.34.07,1.22,1.22,0,0,1,.32.22Zm-.54.43a.57.57,0,0,0-.41.17.6.6,0,0,0-.16.41.58.58,0,0,0,.17.43.55.55,0,0,0,.41.17.53.53,0,0,0,.4-.17.55.55,0,0,0,.16-.42.57.57,0,0,0-.16-.42A.55.55,0,0,0,52.13,105.2Z"/>
          <path d="M54.81,104.77h.52V105a.89.89,0,0,1,.3-.22.86.86,0,0,1,.36-.08.71.71,0,0,1,.35.1.69.69,0,0,1,.25.28.8.8,0,0,1,.3-.28.91.91,0,0,1,.4-.1.71.71,0,0,1,.39.11.62.62,0,0,1,.24.27,1.39,1.39,0,0,1,.08.54v1.22h-.53v-1.06a.92.92,0,0,0-.09-.48.3.3,0,0,0-.26-.12.35.35,0,0,0-.24.08.42.42,0,0,0-.16.21,1.43,1.43,0,0,0,0,.43v.94h-.53v-1a1.28,1.28,0,0,0,0-.4.33.33,0,0,0-.12-.19.34.34,0,0,0-.2-.06.35.35,0,0,0-.24.08.49.49,0,0,0-.16.21,1.56,1.56,0,0,0-.05.44v.93h-.52Z"/>
          <path d="M60,104.77h.52v2.08H60v-.22a1.7,1.7,0,0,1-.31.21.88.88,0,0,1-.33.06.93.93,0,0,1-.7-.31,1.08,1.08,0,0,1-.29-.78,1.12,1.12,0,0,1,.28-.79.93.93,0,0,1,.69-.31.82.82,0,0,1,.35.08A.85.85,0,0,1,60,105Zm-.55.43a.5.5,0,0,0-.4.17.6.6,0,0,0-.16.44.61.61,0,0,0,.16.44.51.51,0,0,0,.4.17.53.53,0,0,0,.41-.17.65.65,0,0,0,.16-.45.61.61,0,0,0-.16-.43A.53.53,0,0,0,59.48,105.2Z"/>
          <path d="M61.14,104h.52v.77H62v.45h-.31v1.63h-.52v-1.63h-.27v-.45h.27Z"/>
          <path d="M64.33,106H62.66a.51.51,0,0,0,.19.35.58.58,0,0,0,.4.13.7.7,0,0,0,.5-.2l.44.2a1.08,1.08,0,0,1-.39.35,1.31,1.31,0,0,1-.55.11,1,1,0,0,1-.79-.31,1,1,0,0,1-.31-.77,1.06,1.06,0,0,1,.31-.79,1,1,0,0,1,.77-.32,1.09,1.09,0,0,1,.8.32,1.16,1.16,0,0,1,.3.83Zm-.52-.41a.52.52,0,0,0-.2-.28.57.57,0,0,0-.36-.11.64.64,0,0,0-.38.12.67.67,0,0,0-.19.27Z"/>
          <path d="M64.63,104.77h.45V105a.55.55,0,0,1,.19-.23.43.43,0,0,1,.26-.09.49.49,0,0,1,.22.06l-.17.45a.37.37,0,0,0-.15,0c-.08,0-.14,0-.2.15a1.34,1.34,0,0,0-.08.59v.94h-.52Z"/>
          <path d="M66.21,103.91a.34.34,0,0,1,.33.34.31.31,0,0,1-.1.24.29.29,0,0,1-.23.1.33.33,0,0,1-.24-.1.36.36,0,0,1-.09-.24A.34.34,0,0,1,66,104,.37.37,0,0,1,66.21,103.91Zm-.26.86h.52v2.08H66Z"/>
          <path d="M68.48,104.77H69v2.08h-.52v-.22a1.41,1.41,0,0,1-.31.21.88.88,0,0,1-.33.06.93.93,0,0,1-.7-.31,1.08,1.08,0,0,1-.29-.78,1.12,1.12,0,0,1,.28-.79.93.93,0,0,1,.69-.31.82.82,0,0,1,.35.08.85.85,0,0,1,.31.21Zm-.55.43a.5.5,0,0,0-.4.17.6.6,0,0,0-.16.44.61.61,0,0,0,.16.44.51.51,0,0,0,.4.17.53.53,0,0,0,.41-.17.61.61,0,0,0,.16-.45.57.57,0,0,0-.16-.43A.53.53,0,0,0,67.93,105.2Z"/>
          <path d="M69.47,104H70v2.88h-.52Z"/>
          <path d="M71.74,105.06l-.33.32a.53.53,0,0,0-.35-.19.26.26,0,0,0-.14,0,.14.14,0,0,0,0,.1.11.11,0,0,0,0,.07.39.39,0,0,0,.16.1l.19.1a1.11,1.11,0,0,1,.41.3.56.56,0,0,1,.12.36.61.61,0,0,1-.21.47.78.78,0,0,1-.54.18.88.88,0,0,1-.73-.35l.32-.35a.62.62,0,0,0,.22.17.49.49,0,0,0,.22.06.22.22,0,0,0,.16-.05.14.14,0,0,0,.06-.11c0-.08-.07-.16-.22-.23l-.18-.09c-.34-.17-.5-.38-.5-.64a.55.55,0,0,1,.19-.42.66.66,0,0,1,.48-.18.92.92,0,0,1,.38.09A1,1,0,0,1,71.74,105.06Z"/>
          <path d="M72.47,106.3a.31.31,0,1,1-.21.09A.29.29,0,0,1,72.47,106.3Z"/>
          <path d="M15.93,113.43h1.55V114H17v2.28h-.54V114h-.5Z"/>
          <path d="M17.79,113.36h.52v1a1.17,1.17,0,0,1,.31-.2.85.85,0,0,1,.31-.06.7.7,0,0,1,.52.21.76.76,0,0,1,.18.55v1.37h-.51v-.91a2.55,2.55,0,0,0,0-.49.39.39,0,0,0-.12-.19.38.38,0,0,0-.21-.07.4.4,0,0,0-.27.11.63.63,0,0,0-.16.29,3.08,3.08,0,0,0,0,.42v.84h-.52Z"/>
          <path d="M20.34,113.3a.37.37,0,0,1,.24.1.36.36,0,0,1,.09.24.32.32,0,0,1-.09.24.31.31,0,0,1-.24.1.29.29,0,0,1-.23-.1.33.33,0,0,1-.1-.24.31.31,0,0,1,.1-.24A.33.33,0,0,1,20.34,113.3Zm-.26.86h.52v2.08h-.52Z"/>
          <path d="M22.35,114.45l-.32.32a.55.55,0,0,0-.36-.19.2.2,0,0,0-.14,0,.11.11,0,0,0-.05.09.13.13,0,0,0,0,.08l.16.09.19.1a1.11,1.11,0,0,1,.41.3.58.58,0,0,1,.12.36.61.61,0,0,1-.21.47.77.77,0,0,1-.54.18.88.88,0,0,1-.73-.35l.32-.35a.72.72,0,0,0,.22.17.51.51,0,0,0,.22.07.25.25,0,0,0,.16,0,.14.14,0,0,0,.07-.12c0-.08-.08-.16-.23-.23l-.18-.09c-.33-.17-.5-.38-.5-.64a.55.55,0,0,1,.19-.42.71.71,0,0,1,.49-.17.85.85,0,0,1,.38.09A.72.72,0,0,1,22.35,114.45Z"/>
          <path d="M25.93,114.58l-.44.24a.63.63,0,0,0-.24-.18.78.78,0,0,0-.28,0,.64.64,0,0,0-.47.18.57.57,0,0,0-.18.44.6.6,0,0,0,.17.44.72.72,0,0,0,1-.07l.41.28a1.1,1.1,0,0,1-.94.43,1.15,1.15,0,0,1-.86-.32,1.06,1.06,0,0,1-.31-.76,1.09,1.09,0,0,1,.15-.56,1.08,1.08,0,0,1,.42-.4,1.37,1.37,0,0,1,.61-.14,1.23,1.23,0,0,1,.55.12A1.07,1.07,0,0,1,25.93,114.58Z"/>
          <path d="M27.93,114.16h.52v2.08h-.52V116a.91.91,0,0,1-.3.21,1,1,0,0,1-.34.06.89.89,0,0,1-.69-.31,1.09,1.09,0,0,1-.3-.78,1.13,1.13,0,0,1,.29-.79.92.92,0,0,1,.69-.3.84.84,0,0,1,.35.07.75.75,0,0,1,.3.21Zm-.55.43a.54.54,0,0,0-.4.17.69.69,0,0,0,0,.88.54.54,0,0,0,.41.18.52.52,0,0,0,.4-.18.6.6,0,0,0,.17-.44.59.59,0,0,0-.17-.44A.52.52,0,0,0,27.38,114.59Z"/>
          <path d="M28.86,114.16h.45v.26a.48.48,0,0,1,.19-.23.42.42,0,0,1,.26-.08.41.41,0,0,1,.21,0l-.16.45a.37.37,0,0,0-.15,0,.23.23,0,0,0-.2.15,1.34,1.34,0,0,0-.08.59v.94h-.52Z"/>
          <path d="M31.77,113.36h.52v2.88h-.52V116a1,1,0,0,1-.31.21.88.88,0,0,1-.33.06.93.93,0,0,1-.7-.31,1.08,1.08,0,0,1-.29-.78,1.12,1.12,0,0,1,.28-.79.92.92,0,0,1,.69-.3.81.81,0,0,1,.35.07.85.85,0,0,1,.31.21Zm-.55,1.23a.53.53,0,0,0-.4.17.69.69,0,0,0,0,.88.52.52,0,0,0,.4.18.54.54,0,0,0,.41-.18.6.6,0,0,0,.16-.44.58.58,0,0,0-.16-.44A.53.53,0,0,0,31.22,114.59Z"/>
          <path d="M34.11,113.3a.35.35,0,0,1,.24.1.33.33,0,0,1,.1.24.3.3,0,0,1-.1.24.29.29,0,0,1-.23.1.33.33,0,0,1-.24-.1.37.37,0,0,1-.1-.24.35.35,0,0,1,.1-.24A.34.34,0,0,1,34.11,113.3Zm-.26.86h.53v2.08h-.53Z"/>
          <path d="M36.12,114.45l-.32.32a.53.53,0,0,0-.36-.19.21.21,0,0,0-.14,0,.11.11,0,0,0,0,.09s0,.05,0,.08l.15.09.19.1a1.26,1.26,0,0,1,.42.3.65.65,0,0,1-.09.83.81.81,0,0,1-.55.18.87.87,0,0,1-.72-.35l.32-.35a.68.68,0,0,0,.21.17.55.55,0,0,0,.22.07.31.31,0,0,0,.17,0,.16.16,0,0,0,.06-.12c0-.08-.08-.16-.23-.23l-.17-.09c-.34-.17-.51-.38-.51-.64a.59.59,0,0,1,.19-.42.73.73,0,0,1,.49-.17.85.85,0,0,1,.38.09A.72.72,0,0,1,36.12,114.45Z"/>
          <path d="M37.67,114.16h.52v.21a1,1,0,0,1,.32-.2.75.75,0,0,1,.29-.06.74.74,0,0,1,.53.21.78.78,0,0,1,.18.55v1.37H39v-.91a2.68,2.68,0,0,0,0-.5.29.29,0,0,0-.12-.18.32.32,0,0,0-.2-.07.37.37,0,0,0-.27.11.55.55,0,0,0-.16.29,3.4,3.4,0,0,0,0,.43v.83h-.52Z"/>
          <path d="M41,114.11a1.15,1.15,0,0,1,.55.14,1.12,1.12,0,0,1,.41.4,1.15,1.15,0,0,1,.14.55,1.18,1.18,0,0,1-.14.55,1.1,1.1,0,0,1-.4.4,1.08,1.08,0,0,1-.56.14,1,1,0,0,1-.76-.32,1.09,1.09,0,0,1,0-1.58A1,1,0,0,1,41,114.11Zm0,.49a.53.53,0,0,0-.41.17.61.61,0,0,0-.16.43.64.64,0,0,0,.16.44.55.55,0,0,0,.41.17.53.53,0,0,0,.4-.17.62.62,0,0,0,.17-.44.66.66,0,0,0-.16-.44A.54.54,0,0,0,41,114.6Z"/>
          <path d="M42.58,113.39h.52v.77h.31v.45H43.1v1.63h-.52v-1.63h-.26v-.45h.26Z"/>
          <path d="M44.79,113.36h.52v1a1.31,1.31,0,0,1,.3-.2.91.91,0,0,1,.32-.06.72.72,0,0,1,.52.21.76.76,0,0,1,.18.55v1.37h-.51v-.91a1.78,1.78,0,0,0,0-.49.29.29,0,0,0-.12-.19.32.32,0,0,0-.2-.07.37.37,0,0,0-.27.11.55.55,0,0,0-.16.29,2,2,0,0,0,0,.42v.84h-.52Z"/>
          <path d="M49.22,115.35H47.54a.54.54,0,0,0,.2.35.58.58,0,0,0,.4.13.68.68,0,0,0,.5-.2l.44.21a1,1,0,0,1-.39.34,1.2,1.2,0,0,1-.55.11,1,1,0,0,1-.79-.31,1,1,0,0,1-.31-.77,1.09,1.09,0,0,1,.3-.79,1.15,1.15,0,0,1,1.57,0,1.12,1.12,0,0,1,.31.83Zm-.52-.41a.58.58,0,0,0-.56-.39.62.62,0,0,0-.38.12.59.59,0,0,0-.19.27Z"/>
          <path d="M51.17,114.16h.53v2.08h-.53V116a.91.91,0,0,1-.3.21.88.88,0,0,1-.33.06.93.93,0,0,1-.7-.31,1.09,1.09,0,0,1-.3-.78,1.13,1.13,0,0,1,.29-.79.92.92,0,0,1,.69-.3.81.81,0,0,1,.35.07.75.75,0,0,1,.3.21Zm-.54.43a.57.57,0,0,0-.41.17.64.64,0,0,0-.16.44.6.6,0,0,0,.17.44.52.52,0,0,0,.4.18.54.54,0,0,0,.41-.18.64.64,0,0,0,.16-.44.62.62,0,0,0-.16-.44A.53.53,0,0,0,50.63,114.59Z"/>
          <path d="M52.17,113.36h.52v2.88h-.52Z"/>
          <path d="M53.23,113.39h.52v.77h.31v.45h-.31v1.63h-.52v-1.63H53v-.45h.27Z"/>
          <path d="M54.34,113.36h.51v1a1.61,1.61,0,0,1,.31-.2.91.91,0,0,1,.32-.06.72.72,0,0,1,.52.21.76.76,0,0,1,.18.55v1.37h-.51v-.91a2.31,2.31,0,0,0,0-.49.29.29,0,0,0-.12-.19.32.32,0,0,0-.2-.07.37.37,0,0,0-.27.11.55.55,0,0,0-.16.29,1.74,1.74,0,0,0,0,.42v.84h-.51Z"/>
          <path d="M58,113.3a.34.34,0,0,1,.34.34.33.33,0,0,1-.1.24.3.3,0,0,1-.23.1.3.3,0,0,1-.24-.1.33.33,0,0,1-.1-.24.31.31,0,0,1,.1-.24A.33.33,0,0,1,58,113.3Zm-.26.86h.52v2.08h-.52Z"/>
          <path d="M58.72,114.16h.52v.21a1,1,0,0,1,.32-.2.75.75,0,0,1,.29-.06.72.72,0,0,1,.53.21.78.78,0,0,1,.18.55v1.37H60v-.91a2.68,2.68,0,0,0,0-.5.33.33,0,0,0-.11-.18.38.38,0,0,0-.21-.07.37.37,0,0,0-.27.11.55.55,0,0,0-.16.29,3.4,3.4,0,0,0,0,.43v.83h-.52Z"/>
          <path d="M62.34,114.45l-.33.32a.53.53,0,0,0-.35-.19.2.2,0,0,0-.14,0,.11.11,0,0,0-.05.09.13.13,0,0,0,0,.08l.16.09.19.1a1.11,1.11,0,0,1,.41.3.58.58,0,0,1,.12.36.61.61,0,0,1-.21.47.77.77,0,0,1-.54.18.88.88,0,0,1-.73-.35l.32-.35a.62.62,0,0,0,.22.17.51.51,0,0,0,.22.07.28.28,0,0,0,.16,0,.16.16,0,0,0,.06-.12c0-.08-.07-.16-.22-.23l-.18-.09c-.33-.17-.5-.38-.5-.64a.55.55,0,0,1,.19-.42.7.7,0,0,1,.48-.17.86.86,0,0,1,.39.09A.87.87,0,0,1,62.34,114.45Z"/>
          <path d="M62.79,114.16h.52v1a1.72,1.72,0,0,0,0,.41.37.37,0,0,0,.13.17.32.32,0,0,0,.22.07.38.38,0,0,0,.22-.06.45.45,0,0,0,.14-.19,1.51,1.51,0,0,0,0-.38v-1h.52V115a2.49,2.49,0,0,1-.08.75.87.87,0,0,1-.31.37.93.93,0,0,1-.52.13,1,1,0,0,1-.56-.15.74.74,0,0,1-.29-.43,2.54,2.54,0,0,1-.06-.68Z"/>
          <path d="M65,114.16h.45v.26a.55.55,0,0,1,.19-.23.43.43,0,0,1,.27-.08.46.46,0,0,1,.21,0l-.16.45a.43.43,0,0,0-.15,0c-.09,0-.15,0-.21.15a1.51,1.51,0,0,0-.08.59v.94H65Z"/>
          <path d="M67.92,114.16h.52v2.08h-.52V116a.91.91,0,0,1-.3.21,1,1,0,0,1-.34.06.93.93,0,0,1-.7-.31,1.21,1.21,0,0,1,0-1.57.92.92,0,0,1,.69-.3.84.84,0,0,1,.35.07.75.75,0,0,1,.3.21Zm-.55.43a.54.54,0,0,0-.4.17.6.6,0,0,0-.16.44.64.64,0,0,0,.16.44.54.54,0,0,0,.41.18.52.52,0,0,0,.4-.18.6.6,0,0,0,.16-.44.58.58,0,0,0-.16-.44A.52.52,0,0,0,67.37,114.59Z"/>
          <path d="M69,114.16h.52v.21a1.08,1.08,0,0,1,.32-.2.8.8,0,0,1,.3-.06.72.72,0,0,1,.52.21.78.78,0,0,1,.18.55v1.37H70.3v-.91a1.87,1.87,0,0,0,0-.5.33.33,0,0,0-.11-.18.38.38,0,0,0-.21-.07.4.4,0,0,0-.27.11.63.63,0,0,0-.16.29,3.4,3.4,0,0,0,0,.43v.83H69Z"/>
          <path d="M73.35,114.58l-.43.24a.63.63,0,0,0-.24-.18.82.82,0,0,0-.28,0,.65.65,0,0,0-.48.18.63.63,0,0,0,0,.88.63.63,0,0,0,.45.17.66.66,0,0,0,.55-.24l.41.28a1.11,1.11,0,0,1-.94.43,1.14,1.14,0,0,1-.86-.32,1.06,1.06,0,0,1-.31-.76,1.09,1.09,0,0,1,.15-.56,1.08,1.08,0,0,1,.42-.4,1.33,1.33,0,0,1,.6-.14,1.25,1.25,0,0,1,.56.12A1,1,0,0,1,73.35,114.58Z"/>
          <path d="M75.91,115.35H74.23a.53.53,0,0,0,.19.35.61.61,0,0,0,.41.13.68.68,0,0,0,.5-.2l.44.21a1,1,0,0,1-.39.34,1.2,1.2,0,0,1-.55.11A1.07,1.07,0,0,1,74,116a1,1,0,0,1-.3-.77,1.09,1.09,0,0,1,.3-.79,1,1,0,0,1,.77-.31,1.05,1.05,0,0,1,.8.31,1.12,1.12,0,0,1,.31.83Zm-.53-.41a.47.47,0,0,0-.2-.28.54.54,0,0,0-.35-.11.65.65,0,0,0-.39.12.78.78,0,0,0-.19.27Z"/>
          <path d="M79,114.16h.52v2.08H79V116a1,1,0,0,1-.31.21.88.88,0,0,1-.33.06.93.93,0,0,1-.7-.31,1.22,1.22,0,0,1,0-1.57.92.92,0,0,1,.69-.3.81.81,0,0,1,.35.07.78.78,0,0,1,.31.21Zm-.55.43a.53.53,0,0,0-.4.17.68.68,0,0,0,0,.88.52.52,0,0,0,.4.18.52.52,0,0,0,.41-.18.6.6,0,0,0,.16-.44.58.58,0,0,0-.16-.44A.52.52,0,0,0,78.41,114.59Z"/>
          <path d="M80,114.16h.52v.21a1,1,0,0,1,.32-.2.75.75,0,0,1,.29-.06.72.72,0,0,1,.53.21.78.78,0,0,1,.18.55v1.37h-.52v-.91a2.68,2.68,0,0,0,0-.5.33.33,0,0,0-.11-.18.38.38,0,0,0-.21-.07.39.39,0,0,0-.27.11.55.55,0,0,0-.16.29,3.4,3.4,0,0,0,0,.43v.83H80Z"/>
          <path d="M83.89,113.36h.52v2.88h-.52V116a.85.85,0,0,1-.31.21.88.88,0,0,1-.33.06.93.93,0,0,1-.7-.31,1.22,1.22,0,0,1,0-1.57.92.92,0,0,1,.7-.3.84.84,0,0,1,.35.07.75.75,0,0,1,.3.21Zm-.55,1.23a.54.54,0,0,0-.4.17.69.69,0,0,0,0,.88.52.52,0,0,0,.4.18.52.52,0,0,0,.41-.18.6.6,0,0,0,.16-.44.58.58,0,0,0-.16-.44A.52.52,0,0,0,83.34,114.59Z"/>
          <path d="M85.8,114.16h.51l.42,1.18.45-1.18h.31l.45,1.17.41-1.17h.52l-.76,2.08h-.33l-.45-1.19-.45,1.19h-.33Z"/>
          <path d="M89.37,113.3a.34.34,0,0,1,.33.34.3.3,0,0,1-.1.24.29.29,0,0,1-.23.1.33.33,0,0,1-.24-.1.36.36,0,0,1-.09-.24.34.34,0,0,1,.09-.24A.37.37,0,0,1,89.37,113.3Zm-.26.86h.52v2.08h-.52Z"/>
          <path d="M90,113.36h.53v2.88H90Z"/>
          <path d="M91,113.36h.52v2.88H91Z"/>
          <path d="M93.59,113.36v1a.78.78,0,0,1,.31-.21.81.81,0,0,1,.35-.07.92.92,0,0,1,.69.3,1.12,1.12,0,0,1,.28.79,1.08,1.08,0,0,1-.29.78.93.93,0,0,1-.7.31.88.88,0,0,1-.33-.06.85.85,0,0,1-.31-.21v.22h-.52v-2.88Zm.55,1.23a.52.52,0,0,0-.41.17.58.58,0,0,0-.16.44.6.6,0,0,0,.16.44.52.52,0,0,0,.41.18.52.52,0,0,0,.4-.18.68.68,0,0,0,0-.88A.53.53,0,0,0,94.14,114.59Z"/>
          <path d="M97.74,115.35H96.06a.54.54,0,0,0,.2.35.58.58,0,0,0,.4.13.68.68,0,0,0,.5-.2l.44.21a1,1,0,0,1-.39.34,1.2,1.2,0,0,1-.55.11,1,1,0,0,1-.79-.31,1,1,0,0,1-.31-.77,1.06,1.06,0,0,1,.31-.79,1,1,0,0,1,.76-.31,1.05,1.05,0,0,1,.8.31,1.12,1.12,0,0,1,.31.83Zm-.52-.41a.49.49,0,0,0-.21-.28.54.54,0,0,0-.35-.11.62.62,0,0,0-.38.12.59.59,0,0,0-.19.27Z"/>
          <path d="M17.68,118.86h.52v2.08h-.52v-.22a1,1,0,0,1-.3.2A.8.8,0,0,1,17,121a1,1,0,0,1-.7-.31,1.12,1.12,0,0,1-.29-.78,1.17,1.17,0,0,1,.28-.79,1,1,0,0,1,.7-.31,1,1,0,0,1,.35.07.89.89,0,0,1,.3.22Zm-.55.42a.52.52,0,0,0-.4.18.59.59,0,0,0-.16.43.69.69,0,0,0,.16.45.56.56,0,0,0,.4.17.55.55,0,0,0,.41-.17.61.61,0,0,0,.16-.45.6.6,0,0,0-.16-.44A.55.55,0,0,0,17.13,119.28Z"/>
          <path d="M20.76,119.28l-.43.24a.63.63,0,0,0-.24-.18.61.61,0,0,0-.28,0,.7.7,0,0,0-.48.17.61.61,0,0,0-.18.45.55.55,0,0,0,.18.43.6.6,0,0,0,.46.17.66.66,0,0,0,.54-.24l.41.28a1.25,1.25,0,0,1-1.8.11,1,1,0,0,1-.31-.76,1.06,1.06,0,0,1,.15-.55,1,1,0,0,1,.42-.4,1.23,1.23,0,0,1,.61-.15,1.12,1.12,0,0,1,.55.13A.91.91,0,0,1,20.76,119.28Z"/>
          <path d="M23.27,119.28l-.43.24a.74.74,0,0,0-.25-.18.61.61,0,0,0-.28,0,.68.68,0,0,0-.47.17.61.61,0,0,0-.18.45.58.58,0,0,0,.17.43.61.61,0,0,0,.46.17.68.68,0,0,0,.55-.24l.41.28a1.26,1.26,0,0,1-1.81.11,1.08,1.08,0,0,1-.31-.76,1,1,0,0,1,.16-.55,1,1,0,0,1,.42-.4,1.21,1.21,0,0,1,.6-.15,1.16,1.16,0,0,1,.56.13A1,1,0,0,1,23.27,119.28Z"/>
          <path d="M25.82,120.05H24.15a.58.58,0,0,0,.19.35.6.6,0,0,0,.4.13.73.73,0,0,0,.51-.2l.44.2a1.1,1.1,0,0,1-.4.35,1.27,1.27,0,0,1-.54.11,1.06,1.06,0,0,1-1.11-1.08,1.1,1.1,0,0,1,.31-.79,1,1,0,0,1,.77-.32,1.08,1.08,0,0,1,.8.32,1.15,1.15,0,0,1,.31.83Zm-.52-.41a.53.53,0,0,0-.2-.29.61.61,0,0,0-.36-.11.65.65,0,0,0-.38.13.67.67,0,0,0-.19.27Z"/>
          <path d="M26.76,118.86v.23a.88.88,0,0,1,.66-.29.93.93,0,0,1,.69.31,1.13,1.13,0,0,1,.29.79,1.09,1.09,0,0,1-.3.78.94.94,0,0,1-.69.31.77.77,0,0,1-.34-.07,1.24,1.24,0,0,1-.31-.2v1h-.51v-2.84Zm.55.42a.57.57,0,0,0-.41.17.6.6,0,0,0-.16.44.61.61,0,0,0,.16.45.57.57,0,0,0,.41.17.54.54,0,0,0,.4-.17.64.64,0,0,0,.17-.45.63.63,0,0,0-.16-.43A.54.54,0,0,0,27.31,119.28Z"/>
          <path d="M28.89,118.09h.52v.77h.31v.45h-.31v1.63h-.52v-1.63h-.27v-.45h.27Z"/>
          <path d="M32.08,120.05H30.41a.58.58,0,0,0,.19.35.6.6,0,0,0,.4.13.73.73,0,0,0,.51-.2l.44.2a1,1,0,0,1-.4.35A1.27,1.27,0,0,1,31,121a1.06,1.06,0,0,1-1.11-1.08,1.1,1.1,0,0,1,.31-.79,1,1,0,0,1,.77-.32,1.08,1.08,0,0,1,.8.32,1.15,1.15,0,0,1,.31.83Zm-.52-.41a.53.53,0,0,0-.2-.29.61.61,0,0,0-.35-.11.65.65,0,0,0-.39.13.67.67,0,0,0-.19.27Z"/>
          <path d="M34,118.05h.52v2.89H34v-.22a1,1,0,0,1-.3.2.8.8,0,0,1-.34.07.93.93,0,0,1-.69-.31,1.09,1.09,0,0,1-.3-.78,1.13,1.13,0,0,1,.29-.79.93.93,0,0,1,.69-.31,1,1,0,0,1,.35.07.89.89,0,0,1,.3.22Zm-.55,1.23a.52.52,0,0,0-.4.18.59.59,0,0,0-.16.43.69.69,0,0,0,.16.45.57.57,0,0,0,.41.17.54.54,0,0,0,.4-.17.61.61,0,0,0,.16-.45.6.6,0,0,0-.16-.44A.55.55,0,0,0,33.49,119.28Z"/>
          <path d="M37.16,118.8a1.14,1.14,0,0,1,1,.55,1.13,1.13,0,0,1,0,1.09,1,1,0,0,1-.4.4,1.07,1.07,0,0,1-.56.15,1.09,1.09,0,0,1-1.08-1.09,1,1,0,0,1,.36-.81A1,1,0,0,1,37.16,118.8Zm0,.49a.57.57,0,0,0-.41.17.69.69,0,0,0,0,.88.54.54,0,0,0,.41.16.53.53,0,0,0,.41-.17.63.63,0,0,0,.16-.43.64.64,0,0,0-.16-.44A.55.55,0,0,0,37.17,119.29Z"/>
          <path d="M38.69,118.86h.52v.21a1.44,1.44,0,0,1,.32-.21.8.8,0,0,1,.3-.06.69.69,0,0,1,.52.22.73.73,0,0,1,.18.54v1.38H40V120a1.82,1.82,0,0,0,0-.5.4.4,0,0,0-.11-.19.37.37,0,0,0-.21-.06.4.4,0,0,0-.27.11.58.58,0,0,0-.16.29,3.08,3.08,0,0,0,0,.42v.84h-.52Z"/>
          <path d="M41,118.05h.52v2.89H41Z"/>
          <path d="M41.75,118.86h.53l.54,1.3.6-1.3H44l-1.3,2.84h-.54l.43-.92Z"/>
          <path d="M46.88,118.86h.52v2.08h-.52v-.22a1.24,1.24,0,0,1-.31.2.72.72,0,0,1-.33.07,1,1,0,0,1-.7-.31,1.08,1.08,0,0,1-.29-.78,1.12,1.12,0,0,1,.28-.79.93.93,0,0,1,.69-.31,1,1,0,0,1,.35.07,1,1,0,0,1,.31.22Zm-.55.42a.5.5,0,0,0-.4.18.59.59,0,0,0-.16.43.64.64,0,0,0,.16.45.54.54,0,0,0,.4.17.57.57,0,0,0,.41-.17.65.65,0,0,0,.16-.45.64.64,0,0,0-.16-.44A.57.57,0,0,0,46.33,119.28Z"/>
          <path d="M48,118.09h.52v.77h.31v.45h-.31v1.63H48v-1.63h-.27v-.45H48Z"/>
          <path d="M50.71,118.86v.23a.93.93,0,0,1,.31-.22,1,1,0,0,1,.35-.07.93.93,0,0,1,.69.31,1.12,1.12,0,0,1,.28.79,1.08,1.08,0,0,1-.29.78,1,1,0,0,1-.7.31.72.72,0,0,1-.33-.07,1.08,1.08,0,0,1-.31-.2v1h-.52v-2.84Zm.55.42a.55.55,0,0,0-.41.17.6.6,0,0,0-.16.44.61.61,0,0,0,.16.45.55.55,0,0,0,.41.17.54.54,0,0,0,.4-.17.64.64,0,0,0,.16-.45.59.59,0,0,0-.16-.43A.5.5,0,0,0,51.26,119.28Z"/>
          <path d="M54.31,118.86h.52v2.08h-.52v-.22a1,1,0,0,1-.31.2.72.72,0,0,1-.33.07,1,1,0,0,1-.7-.31,1.12,1.12,0,0,1-.29-.78,1.17,1.17,0,0,1,.28-.79,1,1,0,0,1,.7-.31,1,1,0,0,1,.35.07.89.89,0,0,1,.3.22Zm-.55.42a.52.52,0,0,0-.4.18.59.59,0,0,0-.16.43.64.64,0,0,0,.16.45.56.56,0,0,0,.4.17.55.55,0,0,0,.41-.17.61.61,0,0,0,.16-.45.6.6,0,0,0-.16-.44A.55.55,0,0,0,53.76,119.28Z"/>
          <path d="M55.24,118.86h.44v.26a.68.68,0,0,1,.2-.24.47.47,0,0,1,.26-.08.42.42,0,0,1,.21.06l-.16.45a.37.37,0,0,0-.15,0,.23.23,0,0,0-.2.15,1.25,1.25,0,0,0-.09.58v1h-.51Z"/>
          <path d="M56.67,118.09h.53v.77h.31v.45H57.2v1.63h-.53v-1.63h-.26v-.45h.26Z"/>
          <path d="M58,118a.29.29,0,0,1,.23.1.34.34,0,0,1-.23.58.33.33,0,0,1-.33-.35.32.32,0,0,1,.09-.23A.33.33,0,0,1,58,118Zm-.26.86h.52v2.08h-.52Z"/>
          <path d="M60.76,119.28l-.44.24a.63.63,0,0,0-.24-.18.61.61,0,0,0-.28,0,.68.68,0,0,0-.47.17.61.61,0,0,0-.18.45.58.58,0,0,0,.17.43.61.61,0,0,0,.46.17.66.66,0,0,0,.54-.24l.41.28a1.11,1.11,0,0,1-.94.44,1.12,1.12,0,0,1-.86-.33,1,1,0,0,1-.31-.76,1.06,1.06,0,0,1,.15-.55,1,1,0,0,1,.42-.4,1.25,1.25,0,0,1,.61-.15,1.12,1.12,0,0,1,.55.13A1,1,0,0,1,60.76,119.28Z"/>
          <path d="M61.43,118a.33.33,0,0,1,.24.1.36.36,0,0,1,0,.48.35.35,0,0,1-.24.1.33.33,0,0,1-.23-.1.33.33,0,0,1-.1-.25.34.34,0,0,1,.33-.33Zm-.26.86h.52v2.08h-.52Z"/>
          <path d="M62.68,118.86v.23a.88.88,0,0,1,.66-.29.93.93,0,0,1,.69.31,1.13,1.13,0,0,1,.29.79,1.09,1.09,0,0,1-.3.78.94.94,0,0,1-.69.31.77.77,0,0,1-.34-.07,1.24,1.24,0,0,1-.31-.2v1h-.51v-2.84Zm.55.42a.57.57,0,0,0-.41.17.6.6,0,0,0-.16.44.61.61,0,0,0,.16.45.57.57,0,0,0,.41.17.53.53,0,0,0,.4-.17.64.64,0,0,0,.17-.45.63.63,0,0,0-.16-.43A.52.52,0,0,0,63.23,119.28Z"/>
          <path d="M66.28,118.86h.52v2.08h-.52v-.22a1,1,0,0,1-.3.2.77.77,0,0,1-.34.07.94.94,0,0,1-.69-.31,1.09,1.09,0,0,1-.3-.78,1.13,1.13,0,0,1,.29-.79.93.93,0,0,1,.69-.31,1,1,0,0,1,.35.07.89.89,0,0,1,.3.22Zm-.54.42a.52.52,0,0,0-.41.18.63.63,0,0,0-.16.43.64.64,0,0,0,.17.45.56.56,0,0,0,.8,0,.61.61,0,0,0,.17-.45.6.6,0,0,0-.17-.44A.53.53,0,0,0,65.74,119.28Z"/>
          <path d="M67.4,118.09h.52v.77h.31v.45h-.31v1.63H67.4v-1.63h-.27v-.45h.27Z"/>
          <path d="M68.71,118a.29.29,0,0,1,.23.1.33.33,0,0,1,.1.24.36.36,0,0,1-.09.24.37.37,0,0,1-.24.1.33.33,0,0,1-.23-.1.33.33,0,0,1-.1-.25.32.32,0,0,1,.09-.23A.33.33,0,0,1,68.71,118Zm-.26.86H69v2.08h-.52Z"/>
          <path d="M69.44,118.86H70v.21a1.09,1.09,0,0,1,.32-.21.72.72,0,0,1,.29-.06.71.71,0,0,1,.53.22.73.73,0,0,1,.18.54v1.38h-.52V120a2.6,2.6,0,0,0,0-.5.35.35,0,0,0-.12-.19.32.32,0,0,0-.2-.06.37.37,0,0,0-.27.11.51.51,0,0,0-.16.29,2,2,0,0,0,0,.42v.84h-.53Z"/>
          <path d="M73.33,118.86h.52v1.78a1.16,1.16,0,0,1-.21.77,1.05,1.05,0,0,1-.86.34,1.54,1.54,0,0,1-.52-.08,1,1,0,0,1-.35-.22,1.07,1.07,0,0,1-.21-.36h.58a.43.43,0,0,0,.19.13.84.84,0,0,0,.29,0,.74.74,0,0,0,.33-.07.4.4,0,0,0,.19-.17.92.92,0,0,0,0-.35.85.85,0,0,1-.29.19.74.74,0,0,1-.34.07,1,1,0,0,1-.71-.31,1.16,1.16,0,0,1,0-1.56.9.9,0,0,1,.66-.27,1,1,0,0,1,.34.07,1.15,1.15,0,0,1,.32.22Zm-.54.43a.55.55,0,0,0-.41.17.54.54,0,0,0-.16.41.59.59,0,0,0,.16.43.57.57,0,0,0,.42.16.54.54,0,0,0,.4-.16.61.61,0,0,0,.16-.43.61.61,0,0,0-.16-.42A.56.56,0,0,0,72.79,119.29Z"/>
          <path d="M76,118.86v.23a.89.89,0,0,1,.3-.22,1,1,0,0,1,.36-.07.93.93,0,0,1,.69.31,1.22,1.22,0,0,1,0,1.57,1,1,0,0,1-.7.31.72.72,0,0,1-.33-.07,1,1,0,0,1-.31-.2v1h-.52v-2.84Zm.55.42a.55.55,0,0,0-.41.17.6.6,0,0,0-.16.44.61.61,0,0,0,.16.45.55.55,0,0,0,.41.17.54.54,0,0,0,.4-.17.64.64,0,0,0,.16-.45.59.59,0,0,0-.16-.43A.52.52,0,0,0,76.54,119.28Z"/>
          <path d="M78.06,118.05h.51v1a1.24,1.24,0,0,1,.31-.2.87.87,0,0,1,.31-.07.69.69,0,0,1,.53.22.73.73,0,0,1,.18.54v1.38h-.52V120a2.42,2.42,0,0,0,0-.48.34.34,0,0,0-.12-.2.32.32,0,0,0-.2-.06.41.41,0,0,0-.28.11.58.58,0,0,0-.15.28,1.91,1.91,0,0,0,0,.43v.84h-.51Z"/>
          <path d="M81.94,118.86h.52v2.08h-.52v-.22a1.24,1.24,0,0,1-.31.2.72.72,0,0,1-.33.07,1,1,0,0,1-.7-.31,1.08,1.08,0,0,1-.29-.78,1.12,1.12,0,0,1,.28-.79.93.93,0,0,1,.69-.31,1,1,0,0,1,.35.07,1,1,0,0,1,.31.22Zm-.55.42a.5.5,0,0,0-.4.18.59.59,0,0,0-.16.43.64.64,0,0,0,.16.45.54.54,0,0,0,.4.17.57.57,0,0,0,.41-.17.61.61,0,0,0,.16-.45.6.6,0,0,0-.16-.44A.57.57,0,0,0,81.39,119.28Z"/>
          <path d="M82.86,118.86h.45v.26a.65.65,0,0,1,.19-.24.5.5,0,0,1,.27-.08.45.45,0,0,1,.21.06l-.16.45a.37.37,0,0,0-.15,0c-.09,0-.15,0-.21.15a1.45,1.45,0,0,0-.08.58v1h-.52Z"/>
          <path d="M84.23,118.86h.52v.24a.78.78,0,0,1,.3-.22.86.86,0,0,1,.36-.08.6.6,0,0,1,.35.1.62.62,0,0,1,.25.28.91.91,0,0,1,.31-.28.76.76,0,0,1,.39-.1.71.71,0,0,1,.39.11.46.46,0,0,1,.24.27,1.39,1.39,0,0,1,.08.54v1.22h-.53v-1.06a1.06,1.06,0,0,0-.08-.48.32.32,0,0,0-.27-.12.4.4,0,0,0-.24.07.49.49,0,0,0-.16.21,1.51,1.51,0,0,0,0,.44v.94h-.52v-1a1.86,1.86,0,0,0,0-.41.35.35,0,0,0-.13-.18.32.32,0,0,0-.2-.06.39.39,0,0,0-.23.07.5.5,0,0,0-.16.22,1.18,1.18,0,0,0-.06.44v.93h-.52Z"/>
          <path d="M89.45,118.86H90v2.08h-.52v-.22a1,1,0,0,1-.31.2.72.72,0,0,1-.33.07,1,1,0,0,1-.7-.31,1.12,1.12,0,0,1-.29-.78,1.17,1.17,0,0,1,.28-.79.93.93,0,0,1,.7-.31,1,1,0,0,1,.35.07.89.89,0,0,1,.3.22Zm-.55.42a.52.52,0,0,0-.4.18.59.59,0,0,0-.16.43.64.64,0,0,0,.16.45.56.56,0,0,0,.4.17.55.55,0,0,0,.41-.17.61.61,0,0,0,.16-.45.6.6,0,0,0-.16-.44A.55.55,0,0,0,88.9,119.28Z"/>
          <path d="M92.53,119.28l-.43.24a.63.63,0,0,0-.24-.18.64.64,0,0,0-.28,0,.69.69,0,0,0-.48.17.61.61,0,0,0-.18.45.55.55,0,0,0,.18.43.59.59,0,0,0,.45.17.66.66,0,0,0,.55-.24l.41.28a1.25,1.25,0,0,1-1.8.11,1,1,0,0,1-.31-.76,1.06,1.06,0,0,1,.15-.55A1,1,0,0,1,91,119a1.23,1.23,0,0,1,.61-.15,1.12,1.12,0,0,1,.55.13A1,1,0,0,1,92.53,119.28Z"/>
          <path d="M93.21,118a.29.29,0,0,1,.23.1.34.34,0,0,1-.23.58.33.33,0,0,1-.33-.35.32.32,0,0,1,.09-.23A.33.33,0,0,1,93.21,118Zm-.26.86h.52v2.08H93Z"/>
          <path d="M96,120.05H94.35a.58.58,0,0,0,.19.35.61.61,0,0,0,.41.13.72.72,0,0,0,.5-.2l.44.2a1,1,0,0,1-.4.35A1.27,1.27,0,0,1,95,121a1.06,1.06,0,0,1-1.11-1.08,1.1,1.1,0,0,1,.31-.79,1,1,0,0,1,.77-.32,1.08,1.08,0,0,1,.8.32A1.15,1.15,0,0,1,96,120Zm-.53-.41a.53.53,0,0,0-.2-.29.61.61,0,0,0-.35-.11.65.65,0,0,0-.39.13.78.78,0,0,0-.19.27Z"/>
          <path d="M97.72,119.15l-.32.32a.53.53,0,0,0-.36-.19.29.29,0,0,0-.14,0,.14.14,0,0,0-.05.1.11.11,0,0,0,0,.07.64.64,0,0,0,.16.1l.19.09a1.14,1.14,0,0,1,.42.31.61.61,0,0,1,.11.36.57.57,0,0,1-.21.46A.73.73,0,0,1,97,121a.87.87,0,0,1-.73-.36l.32-.35a.92.92,0,0,0,.22.18.49.49,0,0,0,.22.06.21.21,0,0,0,.16,0,.13.13,0,0,0,.07-.11c0-.08-.08-.16-.23-.24l-.18-.08c-.33-.17-.5-.39-.5-.64a.54.54,0,0,1,.19-.42.69.69,0,0,1,.49-.18.85.85,0,0,1,.38.09A.83.83,0,0,1,97.72,119.15Z"/>
          <path d="M98.45,120.39a.29.29,0,0,1,.22.09.32.32,0,0,1,0,.42.29.29,0,0,1-.22.09.3.3,0,0,1,0-.6Z"/>
        </g>
        <g>
          <g>
            <path d="M21.78,25.27,19.55,26.5a3.81,3.81,0,0,0-1.25-.92,3.74,3.74,0,0,0-1.44-.25,3.38,3.38,0,0,0-2.43.89,3.07,3.07,0,0,0-.93,2.3,3,3,0,0,0,.89,2.23,3.23,3.23,0,0,0,2.35.86,3.45,3.45,0,0,0,2.81-1.22l2.11,1.44a5.77,5.77,0,0,1-4.85,2.24,5.85,5.85,0,0,1-4.42-1.67,5.49,5.49,0,0,1-1.59-3.91,5.58,5.58,0,0,1,.77-2.86,5.5,5.5,0,0,1,2.17-2.05,6.44,6.44,0,0,1,3.11-.75,6.23,6.23,0,0,1,2.86.64A5.44,5.44,0,0,1,21.78,25.27Z" fill="#5d95c4"/>
            <path d="M25.24,18.71a1.65,1.65,0,0,1,1.21.51,1.76,1.76,0,0,1,0,2.46,1.59,1.59,0,0,1-1.19.5A1.65,1.65,0,0,1,24,21.67a1.71,1.71,0,0,1-.5-1.25,1.62,1.62,0,0,1,.5-1.21A1.6,1.6,0,0,1,25.24,18.71Zm-1.34,4.4h2.68V33.79H23.9Z" fill="#5d95c4"/>
            <path d="M28.56,23.11h8.19L32,31.52h4.52v2.27H27.83l4.82-8.41H28.56Z" fill="#5d95c4"/>
            <path d="M40.93,23.11v1.18A4.89,4.89,0,0,1,42.5,23.2a4.41,4.41,0,0,1,1.81-.37,4.67,4.67,0,0,1,3.55,1.58,5.74,5.74,0,0,1,1.47,4.06,5.59,5.59,0,0,1-1.52,4,4.75,4.75,0,0,1-3.58,1.61,4.43,4.43,0,0,1-1.72-.33,5.18,5.18,0,0,1-1.58-1.08v7.08H38.27V23.11Zm2.82,2.2a2.8,2.8,0,0,0-2.1.86,3.11,3.11,0,0,0-.84,2.26,3.18,3.18,0,0,0,.84,2.3,2.9,2.9,0,0,0,4.17,0,3.21,3.21,0,0,0,.84-2.28,3.14,3.14,0,0,0-.83-2.25A2.71,2.71,0,0,0,43.75,25.31Z" fill="#5d95c4"/>
            <path d="M51.25,19h2.68V33.79H51.25Z" fill="#5d95c4"/>
            <path d="M64.26,23.11h2.68V33.79H64.26V32.66a5.31,5.31,0,0,1-1.58,1.08,4.42,4.42,0,0,1-1.71.33,4.76,4.76,0,0,1-3.58-1.61,5.58,5.58,0,0,1-1.51-4,5.78,5.78,0,0,1,1.46-4.06,4.67,4.67,0,0,1,3.55-1.58,4.44,4.44,0,0,1,1.81.37,4.86,4.86,0,0,1,1.56,1.09Zm-2.82,2.2a2.71,2.71,0,0,0-2.07.88,3.13,3.13,0,0,0-.82,2.25,3.21,3.21,0,0,0,.84,2.28,2.87,2.87,0,0,0,4.15,0,3.17,3.17,0,0,0,.83-2.3,3.11,3.11,0,0,0-.83-2.26A2.8,2.8,0,0,0,61.44,25.31Z" fill="#5d95c4"/>
            <path d="M69.63,23.11h2.68v1.23a4.4,4.4,0,0,1,3.36-1.51,3.48,3.48,0,0,1,1.81.49,3.58,3.58,0,0,1,1.3,1.44,4.28,4.28,0,0,1,1.56-1.44,4.38,4.38,0,0,1,2-.49,3.82,3.82,0,0,1,2,.53,3.12,3.12,0,0,1,1.24,1.39A7.42,7.42,0,0,1,86,27.53v6.26H83.3V28.37a4.66,4.66,0,0,0-.45-2.46,1.55,1.55,0,0,0-1.36-.64,2,2,0,0,0-1.23.39,2.33,2.33,0,0,0-.81,1.09A6.6,6.6,0,0,0,79.18,29v4.82h-2.7V28.62a7.35,7.35,0,0,0-.21-2.08,1.88,1.88,0,0,0-.63-1,1.7,1.7,0,0,0-1-.31,2,2,0,0,0-1.21.4,2.29,2.29,0,0,0-.82,1.11A6.91,6.91,0,0,0,72.31,29v4.75H69.63Z" fill="#5d95c4"/>
          </g>
          <g>
            <path d="M43,35.38h.77a3.16,3.16,0,0,0-.59,1A3.38,3.38,0,0,0,43,37.54a3.58,3.58,0,0,0,.21,1.28,4.2,4.2,0,0,0,.57.92H43a4.29,4.29,0,0,1-.49-1.06,4,4,0,0,1-.14-1.16,3.94,3.94,0,0,1,.15-1.14A3.65,3.65,0,0,1,43,35.38Z" fill="#4d4d4f"/>
            <path d="M44.77,36.37v.27a1.33,1.33,0,0,1,.35-.25,1.15,1.15,0,0,1,.41-.08,1.06,1.06,0,0,1,.81.36,1.3,1.3,0,0,1,.33.92,1.25,1.25,0,0,1-.34.9,1.09,1.09,0,0,1-.81.36,1,1,0,0,1-.39-.07,1.26,1.26,0,0,1-.36-.24v1.14h-.6V36.37Zm.64.5a.66.66,0,0,0-.48.2.73.73,0,0,0-.19.51.75.75,0,0,0,.19.52.66.66,0,0,0,1,0,.77.77,0,0,0,.19-.52.73.73,0,0,0-.19-.51A.63.63,0,0,0,45.41,36.87Z" fill="#4d4d4f"/>
            <path d="M47.11,35.44h.6v3.35h-.6Z" fill="#4d4d4f"/>
            <path d="M50.05,36.37h.61v2.42h-.61v-.25a1.26,1.26,0,0,1-.36.24,1,1,0,0,1-.38.07,1.09,1.09,0,0,1-.82-.36,1.4,1.4,0,0,1,0-1.82,1.06,1.06,0,0,1,.81-.36,1.15,1.15,0,0,1,.41.08,1.33,1.33,0,0,1,.35.25Zm-.64.5a.63.63,0,0,0-.47.2.81.81,0,0,0,0,1,.61.61,0,0,0,.46.2.66.66,0,0,0,.48-.2.75.75,0,0,0,.19-.52.73.73,0,0,0-.19-.51A.66.66,0,0,0,49.41,36.87Z" fill="#4d4d4f"/>
            <path d="M53.64,36.86l-.51.28a.85.85,0,0,0-.28-.21,1,1,0,0,0-.33,0,.75.75,0,0,0-.55.2.69.69,0,0,0-.21.52.64.64,0,0,0,.21.5.72.72,0,0,0,.53.2.75.75,0,0,0,.63-.28l.48.33a1.29,1.29,0,0,1-1.1.5,1.33,1.33,0,0,1-1-.37,1.25,1.25,0,0,1-.36-.89,1.19,1.19,0,0,1,.18-.64,1.17,1.17,0,0,1,.49-.47,1.48,1.48,0,0,1,.7-.17,1.51,1.51,0,0,1,.65.14A1.33,1.33,0,0,1,53.64,36.86Z" fill="#4d4d4f"/>
            <path d="M56.61,37.76h-2a.66.66,0,0,0,.22.41.73.73,0,0,0,.47.15.82.82,0,0,0,.59-.24l.51.24a1.16,1.16,0,0,1-.46.4,1.39,1.39,0,0,1-.63.13,1.25,1.25,0,0,1-.93-.35,1.22,1.22,0,0,1-.36-.9,1.25,1.25,0,0,1,.36-.92,1.17,1.17,0,0,1,.89-.37,1.23,1.23,0,0,1,.93.37,1.3,1.3,0,0,1,.36,1ZM56,37.28a.65.65,0,0,0-.24-.33.76.76,0,0,0-.85,0,.8.8,0,0,0-.23.31Z" fill="#4d4d4f"/>
            <path d="M57.7,35.44v1.2a1.23,1.23,0,0,1,.36-.25,1.07,1.07,0,0,1,.41-.08,1.05,1.05,0,0,1,.8.36,1.3,1.3,0,0,1,.33.92,1.25,1.25,0,0,1-.34.9,1.09,1.09,0,0,1-.81.36,1,1,0,0,1-.39-.07,1.26,1.26,0,0,1-.36-.24v.25h-.6V35.44Zm.64,1.43a.66.66,0,0,0-.48.2.72.72,0,0,0-.18.51.75.75,0,0,0,.18.52.66.66,0,0,0,.48.2.63.63,0,0,0,.47-.2.77.77,0,0,0,.19-.52.69.69,0,0,0-.19-.51A.62.62,0,0,0,58.34,36.87Z" fill="#4d4d4f"/>
            <path d="M62.53,37.76h-2a.66.66,0,0,0,.22.41.73.73,0,0,0,.47.15.82.82,0,0,0,.59-.24l.51.24a1.16,1.16,0,0,1-.46.4,1.39,1.39,0,0,1-.63.13,1.25,1.25,0,0,1-.93-.35,1.22,1.22,0,0,1-.36-.9,1.25,1.25,0,0,1,.36-.92,1.17,1.17,0,0,1,.89-.37,1.23,1.23,0,0,1,.93.37,1.3,1.3,0,0,1,.36,1Zm-.61-.48a.65.65,0,0,0-.24-.33.76.76,0,0,0-.85,0,.71.71,0,0,0-.22.31Z" fill="#4d4d4f"/>
            <path d="M63.09,35.48h.61v.89h.36v.53H63.7v1.89h-.61V36.9h-.31v-.53h.31Z" fill="#4d4d4f"/>
            <path d="M64.24,36.37h.52v.31A.71.71,0,0,1,65,36.4a.53.53,0,0,1,.3-.09.57.57,0,0,1,.25.06l-.19.53a.38.38,0,0,0-.17-.06.27.27,0,0,0-.24.18,1.62,1.62,0,0,0-.1.68v1.09h-.61Z" fill="#4d4d4f"/>
            <path d="M67,36.31a1.3,1.3,0,0,1,.64.17,1.28,1.28,0,0,1,.64,1.1,1.3,1.3,0,0,1-.17.64,1.22,1.22,0,0,1-.46.47,1.31,1.31,0,0,1-.65.16,1.2,1.2,0,0,1-.89-.37,1.27,1.27,0,0,1,0-1.84A1.2,1.2,0,0,1,67,36.31Zm0,.57a.62.62,0,0,0-.47.2.68.68,0,0,0-.19.5.72.72,0,0,0,.18.51.62.62,0,0,0,.48.2.63.63,0,0,0,.47-.2.69.69,0,0,0,.19-.51.68.68,0,0,0-.19-.5A.62.62,0,0,0,67,36.88Z" fill="#4d4d4f"/>
            <path d="M68.76,36.37h.6v.25a1.55,1.55,0,0,1,.38-.24.8.8,0,0,1,.34-.07.86.86,0,0,1,.61.25.89.89,0,0,1,.21.63v1.6h-.6V37.73a2.32,2.32,0,0,0,0-.57.37.37,0,0,0-.13-.22.4.4,0,0,0-.24-.07.47.47,0,0,0-.32.12.62.62,0,0,0-.18.34,2.48,2.48,0,0,0,0,.49v1h-.6Z" fill="#4d4d4f"/>
            <path d="M74.55,36.37h.6v2.42h-.6v-.25a1.26,1.26,0,0,1-.36.24,1,1,0,0,1-.39.07,1.09,1.09,0,0,1-.81-.36,1.4,1.4,0,0,1,0-1.82,1.08,1.08,0,0,1,1.21-.28,1.23,1.23,0,0,1,.36.25Zm-.64.5a.63.63,0,0,0-.47.2.81.81,0,0,0,0,1,.61.61,0,0,0,.46.2.66.66,0,0,0,.48-.2.75.75,0,0,0,.18-.52.72.72,0,0,0-.18-.51A.66.66,0,0,0,73.91,36.87Z" fill="#4d4d4f"/>
            <path d="M75.55,36.37h.71l.47.66.48-.66h.69l-.82,1.14L78,38.79H77.3L76.73,38l-.57.79h-.7l.92-1.27Z" fill="#4d4d4f"/>
            <path d="M80.74,37.76H78.79a.67.67,0,0,0,.23.41.72.72,0,0,0,.47.15.8.8,0,0,0,.58-.24l.51.24a1.16,1.16,0,0,1-.46.4,1.36,1.36,0,0,1-.63.13,1.25,1.25,0,0,1-.93-.35,1.21,1.21,0,0,1-.35-.9,1.24,1.24,0,0,1,.35-.92,1.19,1.19,0,0,1,.9-.37,1.23,1.23,0,0,1,.93.37,1.33,1.33,0,0,1,.35,1Zm-.61-.48A.63.63,0,0,0,79.9,37a.73.73,0,0,0-.41-.12A.71.71,0,0,0,79,37a.8.8,0,0,0-.22.31Z" fill="#4d4d4f"/>
            <path d="M81.31,35.48h.6v.89h.36v.53h-.36v1.89h-.6V36.9H81v-.53h.31Z" fill="#4d4d4f"/>
            <path d="M82.84,35.38a.4.4,0,0,1,.27.11.41.41,0,0,1,0,.56.36.36,0,0,1-.27.11.37.37,0,0,1-.28-.11.42.42,0,0,1-.11-.29.4.4,0,0,1,.11-.27A.41.41,0,0,1,82.84,35.38Zm-.31,1h.61v2.42h-.61Z" fill="#4d4d4f"/>
            <path d="M83.62,35.44h.61v3.35h-.61Z" fill="#4d4d4f"/>
            <path d="M85.36,39.74h-.77a3,3,0,0,0,.59-1,3.74,3.74,0,0,0,0-2.47,3.55,3.55,0,0,0-.57-.92h.77a4.3,4.3,0,0,1,.5,1A4.44,4.44,0,0,1,86,37.59a4,4,0,0,1-.15,1.15A3.69,3.69,0,0,1,85.36,39.74Z" fill="#4d4d4f"/>
          </g>
        </g>
      </g>
    </g>
  </g>
</svg>
